<svg width="250" height="250" viewBox="0 0 250 250" fill="none" xmlns="http://www.w3.org/2000/svg">
<path d="M35 97L32 215" stroke="#FFC107" stroke-width="5" stroke-linecap="round"/>
<path d="M85.397 171.953L32 215" stroke="#FFC107" stroke-width="5" stroke-linecap="round"/>
<path d="M84 173L88.0119 79.0262" stroke="#FFC107" stroke-width="5" stroke-linecap="round"/>
<path d="M35.0684 97.2109L88 79" stroke="#FFC107" stroke-width="5" stroke-linecap="round"/>
<path d="M65.4562 150.698C67.4605 152.85 69.236 155.225 70.9084 157.628C72.346 159.693 73.8008 161.491 73.6757 164.057C73.5494 166.644 72.6096 169.504 70.9916 171.526C70.3883 172.281 67.4696 170.318 67.1216 169.987C64.3916 167.387 62.6912 162.872 61.5039 159.376C61.0441 158.022 59.0098 148.058 61.5871 147.786C61.9061 147.753 62.214 147.784 62.5098 147.867C63.7259 148.21 64.7362 149.437 65.4562 150.698Z" fill="#FFC107"/>
<path d="M53.8472 160.832C54.5464 157.282 55.5119 153.783 56.5728 150.325C56.8233 149.508 57.3566 146.141 58.5286 146.018C60.238 145.838 62.207 147.571 63.2933 148.556C66.2222 151.213 68.6586 154.395 70.9084 157.628C72.346 159.693 73.8008 161.491 73.6757 164.057C73.5494 166.644 72.6096 169.504 70.9916 171.526C70.3883 172.281 67.4696 170.318 67.1216 169.987C64.3916 167.387 62.6912 162.872 61.5039 159.376C61.0441 158.022 59.0098 148.058 61.5871 147.786C64.0509 147.527 65.8603 151.12 66.4558 152.926C67.4859 156.048 67.8086 160.186 66.976 163.412C66.8197 164.018 67.9846 160.192 65.9149 162.497C63.5207 165.163 63.9591 162.159 63.9591 160.083" stroke="#FFC107" stroke-width="3" stroke-linecap="round"/>
<path d="M68.3135 138.489C67.5319 136.1 66.6085 133.53 66.5146 130.995C66.4636 129.616 70.0544 128.31 71.0949 129.204C72.7978 130.668 72.9133 133.216 72.8853 135.284C72.8502 137.886 71.1773 139.982 70.0123 142.206C69.8546 142.507 69.6715 142.787 69.4866 143.066C69.3134 143.327 69.1386 143.587 68.9817 143.861C68.9664 143.888 68.7631 144.422 68.7631 144.309C68.7631 143.25 68.516 142.173 68.4161 141.095C68.3973 140.893 68.3837 140.691 68.378 140.488C68.3589 139.821 68.3362 139.155 68.3135 138.489Z" fill="#FFC107"/>
<path d="M70.8242 150.627C70.8242 148.921 70.3866 147.376 70.0331 145.714C69.5405 143.399 69.1191 140.97 68.3884 138.719C67.5921 136.265 66.6116 133.611 66.5146 130.995C66.4636 129.616 70.0544 128.31 71.0949 129.204C72.7978 130.668 72.9133 133.216 72.8853 135.284C72.8502 137.886 71.1773 139.982 70.0123 142.206C69.7068 142.789 69.3061 143.293 68.9817 143.861C68.9664 143.888 68.7631 144.422 68.7631 144.309C68.7631 143.051 68.4146 141.769 68.378 140.488C68.3116 138.167 68.201 135.859 68.201 133.535C68.201 133.373 68.0754 132.347 68.3259 132.234C68.6768 132.074 68.9765 132.942 69.013 133.108C69.7495 136.456 68.8005 140.845 67.3578 143.861C67.007 144.595 65.7152 147.891 64.5993 146.297C63.4782 144.695 63.0183 142.36 62.7255 140.478C61.9341 135.39 62.3186 130.132 62.6006 125.02C62.8401 120.679 63.089 116.318 63.5895 111.997C63.6878 111.149 63.8914 110.267 63.8914 109.405" stroke="#FFC107" stroke-width="10" stroke-linecap="round"/>
<path d="M72.3233 136.013C72.3233 132.971 72.4472 129.901 72.3025 126.863C72.1885 124.469 71.5852 122.127 71.3448 119.753C71.1042 117.377 71.1991 115.262 71.1991 112.862C71.1991 111.581 71.1991 110.301 71.1991 109.021C71.1991 108.247 71.7061 107.671 71.7612 106.928C71.8636 105.546 72.8145 104.593 73.4059 103.41C73.6989 102.824 73.7728 101.942 73.968 101.307C74.1375 100.756 74.3921 100.292 74.5614 99.7561C74.7722 99.0884 75.1064 98.977 74.4469 99.1419C73.3005 99.4285 72.4766 100.464 71.2823 100.745C70.7493 100.87 70.912 101.349 70.3559 101.349C70.0676 101.349 69.8115 101.649 69.5127 101.723" stroke="#FFC107" stroke-width="20" stroke-linecap="round"/>
<path d="M53.7956 138.24C53.751 137.602 53.7087 136.964 53.6692 136.325C53.578 134.851 53.1744 133.507 54.4975 132.838C54.4569 131.707 54.5521 130.584 54.8975 129.517C54.9308 129.414 55.72 127.868 55.9281 128.122C56.0165 128.23 56.0795 128.38 56.1235 128.553C56.2106 125.354 56.3855 122.156 56.6463 118.962C56.8516 116.448 57.3361 113.958 57.5207 111.446C57.5371 111.223 57.5288 111.016 57.833 111.134C58.5128 111.397 59.0045 112.105 59.3632 112.685C61.3913 115.963 61.7852 119.995 61.8407 123.761C61.9127 128.64 61.3286 133.526 60.129 138.254C60.2122 141.213 59.5941 144.211 58.8323 147.037C58.3947 148.66 58.1621 149.226 57.7185 150.722C57.5937 151.142 57.7126 151.76 57.3334 151.981C57.2734 152.016 57.223 151.882 57.2084 151.815C56.9821 150.756 56.6336 147.282 56.6047 146.922C56.5324 146.024 56.4674 145.126 56.4096 144.228C55.8983 141.961 55.5519 139.649 55.1265 137.366C55.0954 137.199 55.0639 137.031 55.0323 136.862C54.6932 138.004 54.4343 138.408 53.7956 138.24Z" fill="#FFC107"/>
<path d="M59.9566 145.194C59.6331 151.125 58.0049 157.146 56.5839 162.89C56.5454 163.046 56.1929 164.529 55.9801 164.983C55.906 165.141 55.8365 164.657 55.824 164.483C55.6166 161.615 55.4639 158.742 55.2514 155.874C54.7685 149.354 54.0729 142.852 53.6692 136.325C53.5702 134.725 53.103 133.278 54.8767 132.682C57.8538 131.681 59.6557 133.745 60.0086 136.627C60.4346 140.106 59.7341 143.691 58.8323 147.037C58.3947 148.66 58.1621 149.226 57.7185 150.722C57.5937 151.142 57.7126 151.76 57.3334 151.981C57.2734 152.016 57.223 151.882 57.2084 151.815C56.9821 150.756 56.6336 147.282 56.6047 146.922C55.8553 137.612 55.8863 128.27 56.6463 118.962C56.8516 116.448 57.3361 113.958 57.5207 111.446C57.5371 111.223 57.5288 111.016 57.833 111.134C58.5128 111.397 59.0045 112.105 59.3632 112.685C61.3913 115.963 61.7852 119.995 61.8407 123.761C61.921 129.208 61.184 134.662 59.6859 139.896C59.1747 141.682 58.5691 144.707 57.3646 146.256C57.0221 146.696 56.6721 145.341 56.5422 144.799C55.956 142.35 55.5876 139.841 55.1265 137.366C54.6587 134.856 54.0838 132.03 54.8975 129.517C54.9308 129.414 55.72 127.868 55.9281 128.122C56.3614 128.652 56.1833 130.165 56.1571 130.714C56.0677 132.591 55.7014 134.422 55.2098 136.231C54.5368 138.708 54.359 138.759 52.0869 137.324" stroke="#FFC107" stroke-width="20" stroke-linecap="round"/>
<path d="M47.2154 104.347C47.2154 105.339 47.2154 108.316 47.2154 107.324C47.2154 106.775 47.028 105.5 47.028 106.783C47.028 108.516 46.9056 110.291 47.0385 112.019C47.0704 112.435 47.2154 112.771 47.2154 113.195C47.2154 113.736 47.5566 113.953 47.5902 114.423C47.8334 117.829 47.2154 121.053 47.2154 124.396C47.2154 127.768 47.2154 131.141 47.2154 134.514C47.2154 136.235 47.2154 137.956 47.2154 139.677C47.2154 140.784 46.8407 141.915 46.8407 143.039C46.8407 143.449 46.3829 145.776 46.8407 144.632" stroke="#FFC107" stroke-width="20" stroke-linecap="round"/>
<path d="M45.9039 109.219C45.9039 111.136 45.5958 113.324 45.9247 115.215C45.9824 115.546 46.4595 115.279 46.6534 115.215" stroke="#FFC107" stroke-width="20" stroke-linecap="round"/>
<path d="M42.9058 129.08C42.9058 131.46 43.6553 133.692 43.6553 136.096C43.6553 138.632 43.8426 141.234 43.8426 143.799C43.8426 145.388 44.4047 146.716 44.4047 148.234C44.4047 149.794 44.9669 151.301 44.9669 152.876C44.9669 154.113 45.1542 155.309 45.1542 156.52C45.1542 157.255 45.3416 157.936 45.3416 158.685C45.3416 159.107 45.5172 159.489 45.529 159.913C45.5494 160.647 45.4961 160.657 46.2785 160.559" stroke="#FFC107" stroke-width="20" stroke-linecap="round"/>
<path d="M43.0933 163.932C43.0933 167.299 43.468 170.504 43.468 173.862" stroke="#FFC107" stroke-width="20" stroke-linecap="round"/>
<path d="M40.3958 181.464C40.3958 182.123 40.2902 182.907 40.4904 183.548C40.7355 184.332 40.6398 185.249 40.7075 186.063C40.7965 187.131 40.5392 188.112 40.0806 189.03" stroke="#FFC107" stroke-width="20" stroke-linecap="round"/>
<path d="M57.4188 168.603C57.3889 168.782 57.2768 168.966 57.2086 169.128C56.9443 169.757 56.7342 170.401 56.5186 171.047C56.4297 171.314 56.2771 171.581 56.2174 171.85C56.1177 172.298 55.7951 172.75 55.5554 173.142C55.3884 173.415 55.2876 173.722 55.135 173.997C55.0449 174.159 54.9075 174.235 54.8338 174.417C54.7691 174.577 54.6779 174.759 54.5676 174.893C54.4393 175.05 54.3495 175.2 54.2664 175.387C54.2093 175.516 54.1664 175.562 54.1368 175.695C54.0992 175.865 53.9109 175.881 53.8846 176.039C53.8502 176.245 53.6446 176.377 53.6359 176.596C53.6266 176.829 53.0078 177.104 53.4467 177.177" stroke="#FFC107" stroke-width="20" stroke-linecap="round"/>
<path d="M53.4465 177.177C53.4465 177.814 53.4444 178.437 53.387 179.068C53.3649 179.311 53.2574 179.518 53.2574 179.762C53.2574 179.911 53.2564 180.016 53.1943 180.14" stroke="#FFC107" stroke-width="20" stroke-linecap="round"/>
<path d="M53.1943 180.141C53.1943 180.781 53.1076 181.689 52.7529 182.221" stroke="#FFC107" stroke-width="20" stroke-linecap="round"/>
<path d="M52.7533 182.221C52.5631 182.815 52.2161 183.383 51.8076 183.86" stroke="#FFC107" stroke-width="20" stroke-linecap="round"/>
<path d="M51.3031 184.428C51.3031 184.657 51.1156 184.887 51.051 185.107C50.9714 185.379 50.8542 185.617 50.7497 185.878C50.6597 186.103 50.5812 186.523 50.3574 186.634" stroke="#FFC107" stroke-width="20" stroke-linecap="round"/>
<path d="M50.3573 186.634C49.829 187.045 49.6299 187.857 49.1243 188.273C48.904 188.455 48.4658 188.861 48.4658 189.156" stroke="#FFC107" stroke-width="20" stroke-linecap="round"/>
<path d="M48.4659 189.156C47.8617 189.911 46.9088 190.441 46.3223 191.174" stroke="#FFC107" stroke-width="20" stroke-linecap="round"/>
<path d="M46.3223 191.174C46.0274 191.705 45.5137 192.098 45.2505 192.624" stroke="#FFC107" stroke-width="20" stroke-linecap="round"/>
<path d="M45.2505 192.624C44.4941 193.12 43.854 193.705 43.2329 194.326" stroke="#FFC107" stroke-width="20" stroke-linecap="round"/>
<path d="M43.2329 194.326C42.5311 194.878 42.0487 195.686 41.38 196.281C41.3234 196.331 41.2488 196.466 41.2153 196.533" stroke="#FFC107" stroke-width="20" stroke-linecap="round"/>
<path d="M41.2155 196.533C41.0578 196.833 40.522 197.317 40.522 197.668" stroke="#FFC107" stroke-width="20" stroke-linecap="round"/>
<path d="M40.522 197.668C40.5026 197.745 40.3505 197.829 40.3013 197.917C40.2445 198.018 40.2213 198.106 40.1752 198.207C40.1097 198.352 40.0176 198.515 40.0176 198.677" stroke="#FFC107" stroke-width="20" stroke-linecap="round"/>
<path d="M65.6234 154.238C65.6234 154.869 66.3829 155.406 66.4888 156.041C66.5867 156.628 66.5701 157.24 66.5701 157.853C66.5701 158.812 66.5701 159.772 66.5701 160.731C66.5701 162.532 66.6993 164.402 66.1015 166.11C65.9053 166.671 65.6377 167.373 65.6234 167.989C65.608 168.654 65.222 169.04 65.021 169.643" stroke="#FFC107" stroke-width="20" stroke-linecap="round"/>
<path d="M65.0211 169.644C64.8007 170.452 64.2212 171.217 63.9932 172.015C63.8686 172.451 63.5581 172.817 63.5581 173.258" stroke="#FFC107" stroke-width="20" stroke-linecap="round"/>
<path d="M63.5581 173.258C63.5182 173.657 63.2139 174.013 63.2139 174.424C63.2139 174.841 62.8696 175.034 62.8696 175.409" stroke="#FFC107" stroke-width="20" stroke-linecap="round"/>
<path d="M62.8697 175.409C62.8334 176.062 62.5058 176.725 62.2672 177.322C62.19 177.515 62.1957 177.73 62.076 177.905C61.9965 178.021 61.8735 178.149 61.8417 178.292C61.7573 178.672 61.4927 179.078 61.4927 179.454" stroke="#FFC107" stroke-width="20" stroke-linecap="round"/>
<path d="M61.4927 179.454C65.2187 174.598 68.5846 169.442 71.887 164.288C72.1265 163.914 72.3519 163.297 72.6615 162.988C72.7064 162.943 72.6841 163.116 72.7189 163.17C72.7711 163.249 72.8699 163.279 72.9197 163.361C73.1756 163.78 73.474 163.944 73.8186 164.288C74 164.47 73.8981 164.667 74.0385 164.843C74.1212 164.946 74.3069 165.275 74.3158 165.426C74.3365 165.778 74.6462 166.505 74.1437 166.631" stroke="#FFC107" stroke-width="20" stroke-linecap="round"/>
<path d="M74.1434 166.631C74.1434 165.653 74.108 164.61 74.3537 163.662C74.4728 163.202 74.7068 162.422 74.4876 161.983" stroke="#FFC107" stroke-width="20" stroke-linecap="round"/>
<path d="M74.4879 161.984C74.4879 160.726 74.4019 159.439 74.4019 158.197" stroke="#FFC107" stroke-width="20" stroke-linecap="round"/>
<path d="M74.4016 158.197C74.4016 156.979 74.4016 155.762 74.4016 154.544C74.4016 153.324 73.8853 152.11 73.8853 150.882" stroke="#FFC107" stroke-width="20" stroke-linecap="round"/>
<path d="M73.8853 150.882C73.8853 149.756 74.0547 148.626 74.1626 147.507C74.2065 147.051 74.263 146.697 74.3921 146.278C74.5087 145.899 74.4877 145.518 74.4877 145.116" stroke="#FFC107" stroke-width="20" stroke-linecap="round"/>
<path d="M74.4878 136.94C74.4878 136.22 74.5311 135.503 74.6169 134.789C74.676 134.296 74.8934 133.819 74.9181 133.326C74.9338 133.011 74.7769 132.849 74.5739 133.153" stroke="white" stroke-width="20" stroke-linecap="round"/>
<path d="M72.231 132.006C72.2133 132.028 72.1965 132.052 72.1806 132.078C72.2345 132.122 72.2878 132.167 72.317 132.255C72.4225 132.571 72.6522 132.935 72.8047 133.24C72.9603 133.551 73.5492 134.664 73.9331 134.664C73.9641 134.664 73.1632 133.566 73.082 133.479C72.8276 133.205 72.6269 132.781 72.4222 132.465C72.3322 132.326 72.3359 131.878 72.231 132.006Z" fill="#FFC107"/>
<path d="M66.7422 158.197C66.7422 157.17 66.744 156.166 66.8952 155.147C67.189 153.167 67.9267 151.377 68.4443 149.457C68.8409 147.986 69.4904 146.588 70.003 145.154C70.1782 144.664 70.4428 144.126 70.4428 143.605C70.4428 142.093 70.456 140.58 70.7679 139.092C71.1831 137.112 71.269 135.087 71.8581 133.134C71.9488 132.834 72.0278 132.254 72.231 132.006C72.3359 131.878 72.3322 132.326 72.4222 132.465C72.6269 132.781 72.8276 133.205 73.082 133.479C73.1632 133.566 73.9641 134.664 73.9331 134.664C73.5492 134.664 72.9603 133.551 72.8047 133.24C72.6522 132.935 72.4225 132.571 72.317 132.255C72.2636 132.094 72.1297 132.076 72.0589 131.949C71.984 131.814 72.0147 131.679 71.9728 131.537C71.9167 131.348 71.9059 131.203 71.9059 131.002" stroke="#FFC107" stroke-width="20" stroke-linecap="round"/>
<path d="M77.0696 141.673C77.0696 141.4 77.0696 141.128 77.0696 140.855C77.0696 140.402 76.8642 140.047 76.8114 139.607C76.7529 139.12 76.3811 138.768 76.3811 138.278C76.3811 137.916 76.2753 137.648 76.142 137.332C76.0233 137.05 76.1136 136.842 75.9508 136.557C75.8153 136.32 75.6044 136.067 75.5396 135.802C75.336 134.967 75.0837 134.164 74.875 133.33C74.7263 132.735 74.7459 132.168 74.7459 131.556C74.7459 131.122 74.6599 130.694 74.6599 130.275C74.6599 130.007 74.6301 129.688 74.5547 129.433C74.4074 128.936 74.4878 128.331 74.4878 127.817C74.4878 126.909 74.4533 126.05 74.2965 125.168C74.19 124.569 73.9714 123.897 73.9714 123.294C73.9714 122.668 73.9714 122.041 73.9714 121.415C73.9714 120.548 73.9714 119.681 73.9714 118.814C73.9714 118.046 73.8083 117.036 74.0144 116.294C74.1839 115.684 74.3156 114.89 74.3156 114.267C74.3156 113.997 74.4878 113.841 74.4878 113.531C74.4878 113.01 74.5738 112.504 74.5738 111.982C74.5738 111.099 74.8003 110.219 74.832 109.333C74.8579 108.608 74.8974 107.962 74.9993 107.248C75.0153 107.137 75.0041 107.017 75.0041 106.904C75.0041 106.637 75.2004 106.497 75.2432 106.244C75.4034 105.299 75.2623 104.246 75.2623 103.294C75.2623 100.455 75.3484 97.612 75.3484 94.7695" stroke="#FFC107" stroke-width="20" stroke-linecap="round"/>
<path d="M77.5 123.17C77.5689 122.826 77.7634 122.51 77.8921 122.185C78.0973 121.668 78.2304 121.117 78.4801 120.617C78.5463 120.485 78.6433 120.367 78.7049 120.244" stroke="#FFC107" stroke-width="20" stroke-linecap="round"/>
<path d="M78.0161 133.928V133.756" stroke="#FFC107" stroke-width="20" stroke-linecap="round"/>
<path d="M61.1482 110.777C61.1269 109.99 60.7447 109.249 60.7179 108.473C60.71 108.242 60.7908 107.898 60.6988 107.679C60.4912 107.186 60.4907 106.638 60.2876 106.13" stroke="#FFC107" stroke-width="20" stroke-linecap="round"/>
<path d="M60.2876 106.13C60.2876 105.409 59.9434 104.691 59.9434 103.979" stroke="#FFC107" stroke-width="20" stroke-linecap="round"/>
<path d="M59.9434 103.979C59.9434 103.478 59.5991 103.118 59.5991 102.602C59.5991 102.257 59.3935 102.104 59.2549 101.827" stroke="#FFC107" stroke-width="20" stroke-linecap="round"/>
<path d="M59.2549 101.827C59.2549 101.1 59.7058 101.138 60.2876 101.138" stroke="#FFC107" stroke-width="20" stroke-linecap="round"/>
<path d="M60.2876 101.138C60.3174 101.019 60.5588 100.81 60.6318 100.66C60.7021 100.515 60.8211 100.436 60.89 100.316C61.131 99.894 61.448 99.9109 61.8367 100.105" stroke="#FFC107" stroke-width="20" stroke-linecap="round"/>
<path d="M61.8369 100.106C61.8607 99.7015 62.3616 99.2412 62.6975 99.0732" stroke="#FFC107" stroke-width="20" stroke-linecap="round"/>
<path d="M62.6973 99.0733C62.9876 98.812 63.2631 98.5553 63.5388 98.2796C63.7111 98.1073 63.9481 97.767 64.1603 97.6963" stroke="#FFC107" stroke-width="20" stroke-linecap="round"/>
<path d="M58.7388 103.807C58.139 103.712 57.6775 102.767 57.228 102.377C56.9292 102.118 56.7675 101.756 56.463 101.488C56.2911 101.337 56.1452 101.213 55.9849 101.053" stroke="#FFC107" stroke-width="20" stroke-linecap="round"/>
<path d="M46.9482 106.388C46.787 106.353 46.6405 106.132 46.4509 106.063C46.3212 106.017 46.2062 105.923 46.0875 105.853C45.7753 105.669 45.6208 105.389 45.313 105.184" stroke="#FFC107" stroke-width="20" stroke-linecap="round"/>
<path d="M65.1069 104.495C65.4609 103.594 65.7048 102.596 66.1827 101.746C66.4046 101.352 66.6135 100.966 66.7851 100.546C67.0226 99.9654 67.5567 99.6525 67.8466 99.1212C68.1978 98.4773 68.73 97.6988 69.2713 97.1991C69.5979 96.8977 69.8412 96.5324 70.1845 96.2381C70.5436 95.9304 70.8648 95.5659 71.1982 95.2197C71.363 95.0485 71.6342 95.0503 71.7528 94.8564C71.8643 94.6739 71.9952 94.5334 72.097 94.34C72.2083 94.1285 72.5034 94.0945 72.6421 93.8906C72.7511 93.7302 72.7607 93.5794 72.9385 93.4794C73.1992 93.3327 73.3245 92.877 73.627 92.877" stroke="#FFC107" stroke-width="20" stroke-linecap="round"/>
<path d="M76.2949 92.8765C76.5471 92.8616 76.6901 92.6358 76.8974 92.5322" stroke="#FFC107" stroke-width="20" stroke-linecap="round"/>
<path d="M83.8687 89.0037C83.9178 88.3644 84.1268 87.7486 84.1268 87.1104" stroke="#FFC107" stroke-width="10" stroke-linecap="round"/>
<path d="M36.449 205.531C36.0035 206.253 35.7392 207.054 35.3302 207.788C35.2026 208.017 35.0106 208.236 34.8999 208.457" stroke="#FFC107" stroke-width="10" stroke-linecap="round"/>
<path d="M86 174L88.0213 79.0004" stroke="#007BFF" stroke-width="5" stroke-linecap="round"/>
<path d="M86 174L137 196" stroke="#007BFF" stroke-width="5" stroke-linecap="round"/>
<line x1="125.536" y1="103.71" x2="88.0287" y2="78.9568" stroke="#007BFF" stroke-width="5" stroke-linecap="round"/>
<path d="M128 103L137 196" stroke="#007BFF" stroke-width="5" stroke-linecap="round"/>
<path d="M92.0363 85.8955C92.0363 86.6153 92.1936 87.0109 92.4333 87.6701C92.5711 88.0491 92.3813 88.5278 92.4683 88.9193C92.6644 89.8016 92.9919 90.7448 93.6008 91.4645C95.0424 93.1682 96.9714 95.5484 97.0799 97.8273C97.1399 99.0877 97.4675 100.389 97.6053 101.657C97.8346 103.767 97.7104 105.923 97.7104 108.043C97.7104 109.168 97.7104 110.292 97.7104 111.417C97.7104 112.027 97.4199 110.124 97.3601 109.934C96.5966 107.505 96.0059 105.03 95.3287 102.567C94.9997 101.371 94.3058 100.189 94.1612 98.9598C93.8888 96.6444 94.1386 100.14 94.1495 100.688C94.2056 103.493 94.5581 106.303 94.5581 109.105C94.5581 113.041 94.8933 117.15 94.4647 121.06C94.3896 121.746 94.1378 123.793 94.1378 123.104C94.1378 122.074 94.1285 121.058 93.9977 120.033C93.6438 117.258 93.2972 114.707 93.2972 111.907C93.2972 109.549 93.2972 107.191 93.2972 104.832C93.2972 102.314 92.4255 99.9514 92.2582 97.442C92.2063 96.6644 92.2465 95.8749 92.2465 95.0954C92.2465 95.037 92.2465 94.408 92.2465 94.7918C92.2465 95.9394 92.5866 97.0037 93.017 98.0608C94.4241 101.516 96.1001 104.859 97.8738 108.125C99.7781 111.631 100.764 115.638 101.54 119.519C102.849 126.064 103.51 132.895 103.851 139.554C103.894 140.387 104.015 141.228 104.015 142.064C104.015 143.08 103.979 140.028 103.875 139.016C103.327 133.693 101.607 128.555 100.536 123.325C100.338 122.361 100.344 121.361 100.127 120.407C100.101 120.291 100.066 120.191 100.034 120.08C99.8913 119.581 99.7974 121.089 99.6951 121.597C99.0018 125.04 98.4256 128.478 98.2241 131.988C98.1779 132.792 98.1157 135.295 98.084 136.191C98.0657 136.706 98.1939 138.227 97.8972 138.783C97.8518 138.868 96.3939 135.708 96.3327 135.514C95.5901 133.162 94.8639 130.672 94.5114 128.229C94.379 127.311 94.348 124.522 94.348 125.45C94.348 127.602 94.2397 129.745 94.1378 131.895C94.0525 133.695 93.9993 134.745 93.951 136.495C93.9332 137.142 94.117 139.015 93.8343 138.433C93.1429 137.009 93.238 134.828 93.0637 133.307C92.6524 129.72 92.2465 126.202 92.2465 122.602C92.2465 119.533 92.6277 128.729 92.9703 131.778C93.2651 134.401 93.7336 137.073 93.9277 139.694C94.2214 143.66 93.8009 147.601 94.2429 151.579C94.3747 152.765 94.5376 153.765 94.8733 154.906C95.0614 155.545 94.9507 156.094 95.2936 156.704C95.6914 157.411 95.684 157.655 95.5738 156.517C95.1623 152.265 93.6845 148.257 92.5033 144.188C92.3547 143.677 92.3366 143.191 92.2348 142.682C92.0664 141.84 92.0398 144.392 92.0363 145.251C92.0218 148.847 92.0363 152.443 92.0363 156.039C92.0363 157.016 91.9988 158.003 92.0363 158.981C92.0692 159.834 93.743 161.271 94.6048 160.732C96.8639 159.32 98.4919 155.849 99.7651 153.563C100.885 151.553 101.574 149.357 102.754 147.376C103.349 146.376 104.061 144.822 105.159 144.247C105.41 144.115 105.954 143.977 106.116 144.34C106.399 144.974 106.575 146.492 106.63 146.932C107.006 149.959 107.231 153.014 107.331 156.062C107.47 160.331 107.941 173.138 107.786 168.869C107.643 164.948 106.737 161.004 106.163 157.136C104.962 149.043 103.481 140.97 102.462 132.852C102.225 130.966 101.991 128.931 102.123 127.015C102.22 125.616 103.79 128.116 103.91 128.346C105.714 131.808 105.795 136.206 106.21 139.997C106.467 142.354 106.422 145.094 107.062 147.399C107.198 147.888 107.167 146.388 107.167 145.881C107.167 139.992 107.169 134.103 106.934 128.217C106.654 121.24 106.361 114.252 105.906 107.284C105.749 104.874 105.486 102.463 105.486 100.046C105.486 98.7799 105.937 102.536 106.163 103.782C107.076 108.805 107.525 113.808 107.587 118.912C107.607 120.498 107.883 121.376 107.097 119.729C106.038 117.512 105.1 115.342 104.318 113.005C103.51 110.587 102.857 108.201 102.217 105.743C101.927 104.629 101.327 103.532 101.283 102.381C101.256 101.691 100.997 100.831 100.746 100.186C100.401 99.2996 100.647 98.2955 100.232 97.4654C99.9227 96.8465 100.022 96.1469 100.022 95.469C100.022 94.2728 101.833 95.7205 102.334 95.971C103.119 96.3638 104.275 96.5692 104.902 97.1968C106.05 98.3447 102.132 95.4939 100.839 94.5116C99.9893 93.8657 98.7924 92.931 98.2941 91.9898C97.4104 90.3206 100.39 92.6885 100.933 92.9472C101.695 93.3102 102.466 94.179 103.104 94.7685C104.552 96.105 106.06 97.4857 107.879 98.2943C108.436 98.5416 108.709 98.8583 109.152 99.2516C109.728 99.7642 110.775 100.104 111.37 100.699C112.423 101.753 113.34 103.156 114.522 104.085C114.961 104.43 115.652 106.266 115.771 106.805C115.878 107.284 116.068 107.665 116.495 107.949C116.741 108.113 116.671 108.588 116.939 108.802C116.952 108.812 117.248 109.348 117.254 109.292C117.317 108.731 117.335 107.987 117.208 107.447C117.036 106.723 115.888 104.47 117.674 105.439C120.001 106.702 120.196 109.689 120.196 111.977C120.196 116.32 119.603 120.51 118.889 124.796C118.504 127.107 118.017 129.391 117.628 131.685C117.598 131.863 117.536 132.399 117.219 132.28C115.648 131.691 115.281 126.3 115.153 125.59C113.961 118.97 113.148 112.309 112.234 105.649C112.092 104.613 111.7 101.519 112 102.521C112.131 102.955 112.096 103.423 112.141 103.875C112.489 107.417 112.787 110.962 113.051 114.511C113.638 122.394 113.953 130.299 114.616 138.176C114.95 142.148 115.435 146.11 115.865 150.073C115.911 150.496 115.993 151.772 115.993 151.345C115.993 146.035 114.734 140.827 114.406 135.537C114.309 133.981 114.357 132.443 114.476 130.891C114.479 130.844 114.536 129.212 114.861 129.712C115.679 130.97 115.907 132.806 116.087 134.23C117.044 141.816 117.012 149.499 117.663 157.113C117.859 159.41 118.616 166.28 118.503 163.977C118.107 155.853 117.624 147.613 116.624 139.542C116.425 137.935 115.625 135.462 116.717 133.973C117.225 133.28 118.733 139.263 118.842 139.682C119.229 141.167 119.529 142.856 120.196 144.247C120.265 144.391 120.394 144.691 120.523 144.597C120.745 144.437 120.617 142.849 120.617 142.846C120.617 138.954 120.617 135.063 120.617 131.171C120.617 128.244 120.406 119.464 120.406 122.391C120.406 128.868 121.828 135.227 122.088 141.678C122.107 142.148 122.088 143.226 122.088 141.982C122.088 139.855 121.699 137.896 121.154 135.841C120.249 132.435 119.182 128.892 119.146 125.333C119.132 123.972 118.862 122.266 119.192 120.944C119.356 120.287 119.197 119.433 119.659 118.889C120.094 118.377 120.388 117.342 120.406 116.671C120.455 114.86 120.406 113.041 120.406 111.23C120.406 110.491 120.406 109.751 120.406 109.012C120.406 108.775 120.28 107.98 120.617 107.961C121.22 107.928 121.247 108.409 121.247 108.848C121.247 110.005 121.667 110.967 121.667 112.071C121.667 113.153 121.667 114.234 121.667 115.316C121.667 119.29 122.718 123.218 122.718 127.19C122.718 130.825 122.928 134.424 122.928 138.059C122.928 142.595 123.622 146.927 123.045 151.462C122.314 157.207 120.932 164.57 116.764 168.858C115.479 170.179 113.042 170.72 111.253 170.539C109.513 170.363 107.942 168.993 106.397 168.274C103.785 167.058 100.711 166.238 98.5043 164.304C97.436 163.368 96.4784 162.324 95.387 161.409C95.0794 161.151 94.8703 160.919 95.0251 160.498C95.4423 159.366 97.207 159.034 98.189 158.864C101.077 158.364 104.162 158.384 107.05 158.864C108.327 159.076 111.182 159.353 112.211 160.382C112.941 161.112 113.051 161.915 113.051 162.903C113.051 163.964 113.216 164.562 112.024 163.966C111.664 163.786 111.751 163.572 111.533 163.324C111.33 163.091 110.339 163.411 110.074 163.44C107.156 163.765 104.278 164.387 101.341 164.491C98.4801 164.592 95.6704 165.122 92.8069 165.122C92.0989 165.122 91.8262 165.071 91.8262 165.799C91.8262 166.447 91.5984 167.783 91.9896 168.321C92.34 168.802 92.3692 169.647 92.8886 170.037C93.5253 170.514 94.5248 170.375 95.2936 170.375C97.1194 170.375 98.5379 171.821 100.022 172.687C101.12 173.328 102.118 174.206 103.081 174.999C103.915 175.686 105.158 176.042 106.163 176.423C106.958 176.725 107.738 177.031 108.545 177.31C109.084 177.497 110.268 177.792 110.623 178.198C111.092 178.734 111.982 178.86 112.631 179.038C113.695 179.331 114.534 179.959 115.526 180.369C116.313 180.694 117.215 180.872 118.048 181.046C118.687 181.18 119.29 181.65 119.893 181.934C121.131 182.516 122.427 182.95 123.652 183.521C124.511 183.922 125.483 184.289 126.291 184.782C126.627 184.988 127.78 186.404 127.108 185.284C126.752 184.691 125.758 183.526 125.217 183.101C124.498 182.537 124.573 182.138 124.084 181.432C123.201 180.156 122.354 178.106 122.088 176.575C121.776 174.785 120.708 172.916 121.831 171.169C122.686 169.839 123.448 171.887 123.605 172.78C124.059 175.353 125.179 177.879 126.361 180.136C126.729 180.838 127.05 181.572 127.645 182.132C128.066 182.529 127.863 182.841 128.077 183.311C128.424 184.075 128.212 185.537 128.812 186.137C129.443 186.767 129.569 187.794 130.283 188.285C130.602 188.504 130.486 189.039 130.961 189.079C131.205 189.099 131.518 189.394 131.708 189.546C132.483 190.166 131.45 187.34 131.217 186.86C130.851 186.107 130.881 185.25 130.494 184.572C129.906 183.544 130.109 187.044 130.599 188.121C130.926 188.841 131.253 189.115 131.801 189.662C133.069 190.93 130.99 187.49 130.704 186.977C129.132 184.165 127.838 181.493 127.003 178.338C126.302 175.689 125.802 172.719 124.621 170.259C123.997 168.957 124.043 167.149 123.874 165.729C123.622 163.612 123.769 161.423 123.769 159.296C123.769 157.346 123.769 155.396 123.769 153.447C123.769 152.698 123.576 152.032 123.559 153.12C123.438 160.585 125.926 167.38 127.878 174.462C128.378 176.275 128.789 178.265 129.104 180.124C129.159 180.447 129.443 183.714 129.443 182.074C129.443 178.409 129.233 174.753 129.233 171.088C129.233 167.079 129.221 163.122 128.801 159.132C128.647 157.673 128.226 156.216 127.762 154.824C127.561 154.222 126.794 153.46 126.711 152.933C126.649 152.542 126.172 151.672 125.917 152.466C125.547 153.616 125.24 155.152 125.24 156.365C125.24 156.983 125.207 155.124 125.076 154.521C124.933 153.856 124.833 152.894 124.82 152.209C124.797 151.045 125.305 148.206 123.489 149.314C122.931 149.654 122.764 150.557 122.625 151.135C122.333 152.343 122.081 153.552 121.784 154.766C121.611 155.476 121.732 157.487 121.294 156.902C120.806 156.252 121.311 153.826 121.352 153.085C121.434 151.6 121.457 150.122 121.457 148.637C121.457 145.59 121.761 142.798 122.636 139.88C123.099 138.34 123.349 136.958 123.349 135.327C123.349 134.449 123.891 133.72 124.072 132.864C124.19 132.31 124.147 131.793 124.189 131.241C124.2 131.097 124.475 130.524 124.586 130.914C124.784 131.608 124.484 132.625 124.446 133.319C124.257 136.759 124.609 140.198 124.609 143.64C124.609 147.093 125.87 150.477 125.87 153.984" stroke="#007BFF" stroke-width="10" stroke-linecap="round"/>
<path d="M116.204 177.1C116.204 175.778 116.834 174.68 116.834 173.317" stroke="#007BFF" stroke-width="10" stroke-linecap="round"/>
<path d="M214 178L137 196" stroke="black" stroke-width="5" stroke-linecap="round"/>
<path d="M214 178L193.548 85.0985" stroke="black" stroke-width="5" stroke-linecap="round"/>
<path d="M128 103L193.318 84.5947" stroke="black" stroke-width="5" stroke-linecap="round"/>
<path d="M128 104L137 196" stroke="black" stroke-width="5" stroke-linecap="round"/>
<path d="M132.067 105.178C132.398 106.104 133.361 106.953 133.934 107.737C134.577 108.616 135.239 109.33 135.926 110.124C136.299 110.554 136.585 111.125 137.091 111.452C137.346 111.617 137.353 111.938 137.552 112.145C138.048 112.659 138.724 113.047 139.265 113.511C141.443 115.378 144.343 116.012 146.617 117.832C149.17 119.874 150.596 122.177 151.178 125.463C151.264 125.946 151.331 126.489 151.284 126.983C151.26 127.238 151.016 125.88 151.015 125.876C150.435 122.577 150.342 119.705 151.64 116.513C153.497 111.949 156.478 107.651 160.686 104.985C164.334 102.674 169.719 100.816 174.042 102.175C178.684 103.634 176.931 109.998 175.775 113.261C174.579 116.633 173.12 119.941 171.271 123.009C170.113 124.93 168.662 127.137 166.71 128.369C166.541 128.475 165.458 129.147 165.17 128.86C164.903 128.593 165.473 127.653 165.536 127.541C166.612 125.637 168.152 123.976 169.885 122.653C170.499 122.184 172.971 120.413 173.879 121.084C174.313 121.405 174.209 122.272 174.139 122.691C173.736 125.076 172.336 127.153 170.905 129.042C169.338 131.111 167.048 133.617 164.362 134.162C162.157 134.608 161.743 132.063 161.523 130.495C160.808 125.392 161.47 120.199 163.958 115.647C164.369 114.895 165.675 112.318 166.902 112.318C167.628 112.318 167.955 113.044 167.865 113.665C167.517 116.052 165.385 118.435 163.438 119.708C163.07 119.949 161.863 120.649 161.552 119.872C161.43 119.566 161.582 118.999 161.667 118.727C162.346 116.549 163.806 114.562 165.247 112.837C167.394 110.267 170.205 107.267 173.561 106.352C174.145 106.192 175.241 105.869 174.716 106.881C174.074 108.119 172.881 109.164 171.848 110.047C169.052 112.438 165.933 114.536 162.764 116.398C161.382 117.21 158.81 119.052 157.01 118.852C155.762 118.713 158.292 115.102 158.405 114.954C161.548 110.871 165.616 107.899 169.905 105.158C171.422 104.189 169.089 106.512 169.029 106.563C164.503 110.382 159.081 113.151 153.469 114.993C152.079 115.449 149.797 116.292 148.253 115.917C147.618 115.762 152.603 108.73 152.988 108.228C153.721 107.272 154.469 106.319 155.259 105.409C155.28 105.384 155.795 104.99 155.566 105.043C153.644 105.49 151.746 105.947 149.764 106.024C148.336 106.08 146.901 106.044 145.472 106.044C144.292 106.044 145.99 105.512 146.386 105.312C147.045 104.981 147.707 104.673 148.436 104.533C148.597 104.502 149.091 104.485 148.927 104.485C147.798 104.485 146.668 104.493 145.539 104.485C144.53 104.477 143.556 104.312 142.547 104.312C141.917 104.312 141.655 104.717 141.151 105.004C140.72 105.251 141.102 105.661 141.382 105.919C143.083 107.478 145.858 107.888 148.08 107.949C151.126 108.032 153.68 107.349 156.548 106.332C158.03 105.807 159.63 105.412 161.167 105.081C161.285 105.056 163.893 104.754 163.852 104.899C163.738 105.297 162.961 105.803 162.687 106.005C160.5 107.626 158.025 108.955 155.586 110.143C151.465 112.151 146.95 113.957 142.316 114.165C141.773 114.19 139.862 114.579 139.862 113.626C139.862 113.075 139.99 112.699 140.41 112.299C142.704 110.111 145.797 108.621 148.484 106.987C151.593 105.096 154.403 103.299 157.886 102.291C159.167 101.92 160.39 101.26 161.667 100.847C163.788 100.162 166.017 99.7503 168.211 99.3846C169.199 99.22 170.191 98.8777 171.184 98.7784C172.302 98.6666 170.001 98.7688 169.982 98.7688C167.132 98.7688 164.295 98.7067 161.504 99.3654C160.299 99.6497 159.063 100.121 157.837 100.289C155.925 100.552 154.145 100.929 152.247 101.28C151.663 101.388 150.537 101.36 150.081 101.79C149.895 101.966 149.488 102.05 149.36 102.233C149.339 102.262 152.762 102.406 153.103 102.406C154.725 102.406 156.351 102.44 157.972 102.406C158.744 102.39 159.433 102.06 160.205 102.06C161.421 102.06 162.165 101.238 163.188 100.78C165.914 99.558 168.593 98.0496 171.444 97.0751C172.902 96.577 174.251 95.7865 175.688 95.2372C176.459 94.9424 177.289 94.8199 178.055 94.5251C179.785 93.8599 181.63 93.0964 183.55 93.0528C184.947 93.021 186.163 92.5625 187.514 92.3695C187.842 92.3227 190.073 91.8429 190.093 92.1867C190.146 93.0807 190.093 93.9965 190.093 94.8907C190.093 97.1451 190.44 99.3653 190.44 101.617C190.44 103.69 188.995 106.891 186.494 105.832C185.241 105.301 183.788 103.618 183.454 102.31C183.291 101.673 183.136 100.388 183.377 99.7503C183.699 98.8969 186.569 99.4276 187.197 99.5771C187.946 99.7555 188.96 100.145 189.035 101.021C189.333 104.523 188.286 108.669 186.976 111.875C186.427 113.218 185.718 114.738 184.907 115.955C184.236 116.962 186.059 113.786 186.918 112.934C187.648 112.209 189.319 110.973 190.517 111.692C191.303 112.164 191.852 114.435 191.797 112.068C191.75 110.098 191.479 108.152 191.479 106.178C191.479 104.671 193.315 107.648 193.442 107.853C195.111 110.529 197.195 113.692 197.195 116.946C197.195 118.143 197.316 119.345 196.598 120.382C195.976 121.282 194.859 121.906 193.904 122.383C189.493 124.589 183.733 125.215 181.057 120.257C179.839 117.999 179.855 115.65 179.884 113.136C179.901 111.598 179.922 110.054 180.124 108.526C180.18 108.103 180.295 106.32 180.74 105.986C181.206 105.637 181.75 106.613 182.106 107.073C184.277 109.872 184.612 113.805 184.868 117.197C185.454 124.956 184.5 132.683 184.377 140.436C184.288 146.06 182.818 129.259 182.818 123.634C182.818 123.365 182.818 123.095 182.818 122.826C182.818 122.531 183.098 121.847 182.818 121.941C182.537 122.034 182.075 129.759 182.068 129.812C180.836 138.897 178.257 147.498 174.668 155.909C174.325 156.713 173.959 158.491 173.427 156.833C171.621 151.208 172.193 144.669 172.426 138.858C172.513 136.682 172.511 134.508 173.696 132.612C173.737 132.547 173.857 132.338 173.985 132.372C174.524 132.514 174.174 134.289 174.158 134.393C173.652 137.717 172.339 140.191 170.116 142.668C169.539 143.311 168.659 144.51 168.355 143.053C168.011 141.405 168.008 139.666 167.961 137.992C167.907 136.086 167.777 134.068 168.115 132.179C168.438 130.372 169.473 127.846 171.521 127.464C173.816 127.036 175.692 128.277 176.91 130.178C178.519 132.689 179.118 135.664 179.431 138.588C179.933 143.276 179.764 148.155 178.681 152.753C177.873 156.182 176.513 160.939 172.628 161.981C166.604 163.598 162.196 154.969 160.051 150.925C156.47 144.175 153.44 137.056 150.543 129.985C150.511 129.907 147.979 123.38 148.224 123.355C148.488 123.329 149.305 124.51 149.312 124.52C151.195 127.187 152.337 130.312 152.949 133.507C153.572 136.762 153.653 140.099 153.594 143.4C153.565 145.014 153.64 146.966 153.132 148.548C153.054 148.79 152.828 148.128 152.757 147.884C152.281 146.252 151.974 144.607 151.775 142.919C151.329 139.137 151.064 135.177 151.563 131.39C151.687 130.45 151.929 130.42 152.862 130.486C157.678 130.824 161.627 135.888 163.746 139.724C165.419 142.752 166.668 146.019 167.711 149.308C167.778 149.522 167.993 150.153 167.874 149.963C166.582 147.895 165.505 145.66 164.352 143.515C161.385 137.996 158.392 132.43 156.259 126.521C155.92 125.58 155.644 124.618 155.316 123.673C155.254 123.494 154.931 122.794 155.393 123.365C158.384 127.06 159.981 132.035 161.157 136.548C162.648 142.27 162.942 148.041 163.765 153.85C163.898 154.79 163.82 154.953 162.678 154.832C159.159 154.456 155.788 152.234 153.854 149.327C152.009 146.556 150.827 143.337 150.158 140.089C149.393 136.372 149.682 132.599 149.389 128.84C149.302 127.736 149.069 124.422 149.215 125.52C149.839 130.2 150.402 134.842 150.543 139.57C150.657 143.378 150.954 147.487 150.582 151.3C150.554 151.587 150.13 150.924 149.985 150.675C148.877 148.769 147.817 146.823 146.81 144.862C145.291 141.905 143.869 138.879 142.72 135.759C141.86 133.426 141.563 131.366 141.344 128.908C141.267 128.042 141.074 127.18 141.074 126.309C141.074 126.072 141.105 126.834 141.132 126.916C141.414 127.76 142.004 128.535 142.499 129.254C144.214 131.745 145.852 134.22 147.31 136.875C148.997 139.949 150.509 143.09 152.073 146.219C153.783 149.638 148.324 139.557 146.425 136.24C144.864 133.515 143.846 130.605 142.845 127.637C142.383 126.269 141.73 124.95 141.151 123.634C140.807 122.853 139.92 122.504 139.496 121.777C138.988 120.906 138.199 120.337 137.783 119.419C137.612 119.04 137.286 118.883 137.004 118.602C136.697 118.295 136.781 117.873 136.571 117.514C136.275 117.009 135.661 116.197 135.541 115.657C135.521 115.568 135.574 115.011 135.493 115.262C135.122 116.421 135.392 117.863 135.445 119.044C135.54 121.174 135.705 123.311 135.705 125.443C135.705 125.853 135.852 126.274 136.013 126.656C136.273 127.274 136.367 128.053 136.638 128.715C137.023 129.654 137.355 131.018 137.427 132.025C137.542 133.633 138.093 135.181 138.13 136.818C138.175 138.82 138.46 140.788 138.659 142.774C138.887 145.049 139.485 147.185 139.727 149.481C139.876 150.898 140.376 152.292 140.641 153.706C141.039 155.824 141.651 157.886 142.008 160.028C142.334 161.984 142.74 164.079 142.807 166.052C142.82 166.458 142.98 166.849 142.98 167.245C142.98 167.785 142.779 166.169 142.537 165.686C141.792 164.196 141.713 162.275 141.151 160.692C140.64 159.251 140.082 157.73 139.429 156.352C139.253 155.981 139.169 154.126 139.169 155.274C139.169 157.039 139.169 158.803 139.169 160.567C139.169 161.504 139.169 162.44 139.169 163.377C139.169 164.283 139.169 164.96 139.169 163.54C139.169 161.732 138.513 160.165 138.476 158.392C138.438 156.528 137.893 154.614 137.649 152.753C137.602 152.394 137.61 152.037 137.61 151.675C137.61 151.509 137.451 152.791 137.447 152.946C137.38 155.348 137.437 157.759 137.437 160.163C137.437 161.081 137.342 162.047 137.524 162.953C137.622 163.447 137.503 163.998 137.629 164.474C137.716 164.797 137.957 164.892 137.957 165.282C137.957 165.943 137.904 166.593 138.091 167.226C138.755 169.465 138.748 171.991 139.179 174.289C139.421 175.581 139.689 176.641 139.689 177.984C139.689 178.902 139.689 179.819 139.689 180.737C139.689 182.063 139.538 183.812 140.112 185.028C140.338 185.507 140.235 189.7 140.824 189.869C141.45 190.047 141.855 189.742 142.248 189.32C143.142 188.362 143.546 187.148 144.029 185.952C144.862 183.89 145.743 181.866 146.252 179.697C146.694 177.812 147.055 176.02 146.925 174.077C146.724 171.081 146.148 168.165 146.107 165.147C146.062 161.841 145.547 155.949 149.533 154.735C153.66 153.479 154.678 161.603 154.546 164.204C154.476 165.589 153.025 168.159 151.602 166.206C150.39 164.542 150.805 162.148 151.198 160.297C152.042 156.316 153.401 150.655 156.971 148.125C158.941 146.729 161.559 146.361 163.034 148.673C164.305 150.667 164.618 153.27 164.708 155.563C164.854 159.286 164.234 162.926 162.88 166.389C162.372 167.688 161.893 169.612 160.262 169.612C158.76 169.612 161.901 166.806 162.476 166.495C163.523 165.928 159.397 160.278 158.761 159.239C158.496 158.806 158.299 158.137 157.914 157.796C157.844 157.733 157.871 157.98 157.866 158.075C157.814 159.195 157.7 160.298 157.414 161.385C156.891 163.373 156.329 165.426 155.461 167.293C155.067 168.14 154.499 168.811 154.065 169.612C153.602 170.47 153.108 171.291 152.814 172.172C152.62 172.755 152.62 172.586 153.68 172.442C160.763 171.477 167.492 168.394 174.216 166.11C175.773 165.58 177.33 165.064 178.873 164.493C179.688 164.191 180.238 164.119 179.22 164.878C177.721 165.995 175.947 166.764 174.293 167.601C171.526 169.001 168.824 170.556 166.017 171.874C163.723 172.951 161.344 173.831 159.069 174.953C158.021 175.47 156.961 176.161 155.855 176.541C154.814 176.898 153.164 177.269 152.391 178.138C151.696 178.92 153.393 179.054 153.815 179.101C157.241 179.478 160.284 178.931 163.476 177.725C163.813 177.597 167.927 176.08 168.086 176.637C168.654 178.624 160.541 180.606 159.57 180.89C157.341 181.544 155.016 181.708 152.814 182.392C152.606 182.456 150.761 182.695 150.899 183.056C151.465 184.525 153.235 184.509 154.489 184.509C155.826 184.509 154.625 185.216 153.892 185.509C153.059 185.843 152.03 186.241 151.121 186.241C150.365 186.241 150.268 186.76 149.485 186.76C149.4 186.76 148.733 186.771 148.927 186.76C150.394 186.679 151.809 185.898 153.238 185.577C155.065 185.166 156.845 184.639 158.704 184.374C159.914 184.201 161.216 183.856 162.418 183.816C163.232 183.789 164.056 183.469 164.872 183.469C165.535 183.469 163.554 183.634 162.899 183.739C161.678 183.935 160.432 184.088 159.204 184.239C156.458 184.576 153.718 185.229 151.005 185.76C150.087 185.939 149.296 186.139 148.532 186.664C147.509 187.368 149.848 186.327 149.927 186.299C154.826 184.543 159.713 182.684 164.708 181.218C167.781 180.316 171.006 179.36 174.158 178.754C174.243 178.738 175.196 178.358 175.245 178.456C175.28 178.525 170.136 180.058 169.789 180.14C165.986 181.032 162.215 181.971 158.434 182.94C156.782 183.364 155.053 183.653 153.459 184.143C152.701 184.376 151.908 184.244 151.178 184.682C150.563 185.051 149.904 185.504 149.389 185.991C149.066 186.295 148.845 186.63 148.532 186.943C148.342 187.133 147.836 187.61 147.839 187.588C148.014 186.366 150.019 186.265 150.899 186.068C153.167 185.56 155.332 185.234 157.626 184.951C159.13 184.766 160.562 184.296 162.043 184.008C162.873 183.847 164.094 183.437 164.939 183.469C166.779 183.54 161.506 184.872 159.695 185.202C157.523 185.596 155.427 185.721 153.228 185.721C151.843 185.721 150.557 186.028 149.35 186.76C148.462 187.3 147.766 187.911 146.79 188.329C146.19 188.586 145.666 189.25 146.521 188.031C147.627 186.454 149.424 185.852 151.13 185.115C154.654 183.592 158.295 182.388 161.995 181.372C166.748 180.066 171.474 179.263 176.034 177.378C177.593 176.734 179.176 176.025 180.75 175.434C181.006 175.338 181.945 175.141 181.404 175.608C180.724 176.195 179.951 176.696 179.181 177.157C177.703 178.04 176.11 179.096 174.485 179.659C174.199 179.758 172.671 180.549 173.34 180.515C176.08 180.375 178.784 179.312 181.519 179.312C181.861 179.312 181.863 179.319 181.433 179.418C179.912 179.769 178.394 180.185 176.891 180.602C174.282 181.325 171.668 182.089 169.067 182.844C168.238 183.085 167.309 183.085 166.498 183.335C165.781 183.555 166.456 183.244 166.768 183.104C168.383 182.377 170.068 181.851 171.733 181.256C174.506 180.266 177.403 179.619 180.143 178.514C182.504 177.561 185.037 177.25 187.486 176.551C188.39 176.292 189.336 176.276 190.247 176.021C191.053 175.796 191.853 175.387 192.692 175.328C194.109 175.229 195.368 174.402 196.772 174.154C198.7 173.814 200.894 173.381 202.651 172.461C203.52 172.006 204.692 171.36 202.969 171.345C201.768 171.334 200.578 171.25 199.485 171.826C197.695 172.77 196.006 173.754 194.116 174.501C192.884 174.988 191.684 175.595 190.401 175.944C190.226 175.992 188.135 176.483 188.573 176.531C189.845 176.673 191.495 176.705 192.749 176.454C193.819 176.24 194.988 176.259 196.079 176.194C196.634 176.162 196.925 175.675 197.522 175.675C197.856 175.675 198.189 175.675 198.523 175.675C199.551 175.675 201.381 175.755 202.305 175.242C202.889 174.917 203.002 174.987 203.469 174.501C203.922 174.03 204.701 173.865 205.259 173.558C205.493 173.429 205.776 173.203 205.99 173.038C206.12 172.938 206.507 172.941 206.539 172.798C206.729 171.941 205.75 171.268 205.529 170.575C204.921 168.675 204.329 166.891 203.777 164.974C203.454 163.853 202.896 162.695 202.738 161.548C202.634 160.793 202.306 160.164 201.968 159.489C201.034 157.622 200.211 155.699 199.428 153.764C198.057 150.375 196.922 146.895 195.482 143.534C194.588 141.448 193.69 139.489 193.076 137.299C192.474 135.145 191.636 133.125 190.892 131.025C190.619 130.254 190.162 129.382 190.093 128.561C190.069 128.264 190.093 127.954 190.093 127.657C190.093 126.004 190.547 128.824 190.642 129.1C191.773 132.378 193.756 134.914 195.559 137.799C195.807 138.195 196.096 138.59 196.233 139.041C196.47 139.821 196.841 140.616 196.983 141.417C197.109 142.125 197.022 144.751 197.022 142.437C197.022 140.388 196.502 138.48 196.502 136.452C196.502 135.353 196.244 134.245 196.069 133.161C195.943 132.377 195.845 131.562 195.809 130.774C195.782 130.18 195.375 129.7 195.29 129.1C195.23 128.679 195.153 128.249 195.078 127.83C194.864 126.626 194.943 122.941 194.943 124.164C194.943 125.122 196.034 126.39 196.502 127.252C196.846 127.885 197.033 128.421 197.33 129.081C197.974 130.512 197.645 132.176 197.975 133.69C198.154 134.515 198.052 135.485 198.311 136.279C198.494 136.836 198.823 137.346 199.004 137.915C199.166 138.424 199.102 138.958 199.274 139.474C199.418 139.907 199.699 140.206 199.889 140.609C200.077 141.007 200.036 141.486 200.226 141.908C200.659 142.871 200.378 143.973 200.842 144.939C201.669 146.663 201.71 148.939 202.007 150.829C202.152 151.757 202.662 152.501 202.728 153.494C202.81 154.723 203.431 155.96 203.431 157.16C203.431 157.886 203.621 158.565 203.912 159.22C204.527 160.603 202.686 161.66 201.833 162.299C198.964 164.451 195.79 166.273 192.653 167.996C187.773 170.676 182.764 173.594 177.526 175.521C176.029 176.072 174.152 176.447 172.945 175.136C171.361 173.415 171.26 171.035 171.444 168.823C171.76 165.033 173.022 161.189 174.379 157.661C176.051 153.313 178.204 149.739 181.664 146.594C182.785 145.575 186.261 143.163 186.937 145.998C187.674 149.089 186.491 153.192 185.571 156.083C184.052 160.855 181.351 165.442 178.652 169.641C178.432 169.983 177.976 170.881 177.526 171.094C176.678 171.496 177.712 169.208 178.026 168.323C179.323 164.676 180.885 161.104 182.443 157.565C184.17 153.642 185.852 149.631 188.91 146.537C190.189 145.242 192.5 142.957 194.558 142.957C195.774 142.957 195.588 146.169 195.559 146.748C195.489 148.17 195.376 149.651 195.049 151.04C194.504 153.359 193.125 155.452 191.902 157.459C189.623 161.202 187.205 165.128 184.012 168.169C183.619 168.543 180.916 171.045 182.222 168.958C183.905 166.268 186.219 164.241 189.093 162.905C190.384 162.305 191.959 161.509 193.384 161.298C193.791 161.238 194.179 161.135 194.539 160.933C195.008 160.67 195.508 160.352 196.05 160.269C196.409 160.213 196.856 160.343 196.117 160.067C192.064 158.547 187.786 157.468 183.656 156.16C182.372 155.753 181.097 155.418 180.047 154.543" stroke="black" stroke-width="10" stroke-linecap="round"/>
<path d="M188.708 115.051C188.817 117.127 190.266 119.052 190.266 121.113" stroke="black" stroke-width="10" stroke-linecap="round"/>
<path d="M206.088 172.876C206.596 173.04 207.145 173.177 207.588 173.488C207.892 173.7 208.12 174.033 208.439 174.208C208.748 174.377 208.94 174.675 209.242 174.826" stroke="black" stroke-width="10" stroke-linecap="round"/>
</svg>
