<svg width="250" height="250" viewBox="0 0 250 250" fill="none" xmlns="http://www.w3.org/2000/svg">
<rect width="250" height="250" rx="125" fill="white"/>
<path d="M45.7031 91.5781L42.9998 193.508" stroke="#FFC107" stroke-width="5" stroke-linecap="round"/>
<path d="M91.1157 156.322L42.9998 193.506" stroke="#FFC107" stroke-width="5" stroke-linecap="round"/>
<path d="M89.8569 157.227L93.4721 76.0505" stroke="#FFC107" stroke-width="5" stroke-linecap="round"/>
<path d="M45.7651 91.7598L93.4618 76.0291" stroke="#FFC107" stroke-width="5" stroke-linecap="round"/>
<path d="M73.7028 136.99C75.4492 138.816 76.9963 140.831 78.4536 142.87C79.7062 144.623 80.9738 146.148 80.8648 148.325C80.7548 150.521 79.9358 152.947 78.5261 154.663C78.0004 155.303 75.4572 153.638 75.154 153.357C72.7752 151.151 71.2936 147.319 70.259 144.353C69.8584 143.204 68.0858 134.75 70.3316 134.519C70.6094 134.491 70.8778 134.517 71.1355 134.588C72.1952 134.879 73.0755 135.92 73.7028 136.99Z" fill="#FFC107"/>
<path d="M63.5874 145.589C64.1966 142.577 65.0379 139.607 65.9624 136.673C66.1806 135.981 66.6453 133.124 67.6665 133.019C69.156 132.866 70.8717 134.337 71.8182 135.173C74.3703 137.427 76.4932 140.127 78.4536 142.87C79.7062 144.623 80.9738 146.148 80.8648 148.325C80.7548 150.521 79.9358 152.947 78.5261 154.663C78.0004 155.303 75.4572 153.638 75.154 153.357C72.7752 151.151 71.2936 147.319 70.259 144.353C69.8584 143.204 68.0858 134.75 70.3316 134.519C72.4784 134.299 74.0549 137.348 74.5739 138.88C75.4714 141.529 75.7526 145.04 75.0271 147.778C74.8909 148.292 75.9059 145.045 74.1025 147.001C72.0163 149.264 72.3983 146.715 72.3983 144.953" stroke="#FFC107" stroke-width="3" stroke-linecap="round"/>
<path d="M76.1927 126.631C75.5116 124.604 74.7071 122.423 74.6253 120.272C74.5808 119.103 77.7096 117.994 78.6162 118.753C80.1 119.995 80.2007 122.157 80.1763 123.911C80.1457 126.119 78.688 127.898 77.6729 129.785C77.5355 130.04 77.3759 130.278 77.2148 130.514C77.0639 130.736 76.9117 130.956 76.775 131.189C76.7616 131.212 76.5845 131.665 76.5845 131.569C76.5845 130.671 76.3691 129.757 76.2821 128.843C76.2657 128.671 76.2539 128.499 76.2489 128.328C76.2323 127.761 76.2125 127.196 76.1927 126.631Z" fill="#FFC107"/>
<path d="M78.3804 136.931C78.3804 135.483 77.9991 134.171 77.6911 132.762C77.2619 130.797 76.8947 128.736 76.2579 126.826C75.5641 124.744 74.7097 122.492 74.6253 120.272C74.5808 119.103 77.7096 117.994 78.6162 118.753C80.1 119.995 80.2007 122.157 80.1763 123.911C80.1457 126.119 78.688 127.898 77.6729 129.785C77.4067 130.28 77.0576 130.708 76.775 131.189C76.7616 131.212 76.5845 131.665 76.5845 131.569C76.5845 130.502 76.2807 129.414 76.2489 128.328C76.1911 126.358 76.0947 124.399 76.0947 122.427C76.0947 122.29 75.9852 121.42 76.2035 121.323C76.5093 121.188 76.7704 121.925 76.8022 122.065C77.4439 124.906 76.617 128.63 75.36 131.189C75.0543 131.812 73.9287 134.609 72.9563 133.256C71.9795 131.897 71.5788 129.916 71.3237 128.319C70.634 124.001 70.9691 119.54 71.2148 115.202C71.4235 111.519 71.6404 107.819 72.0765 104.152C72.1621 103.433 72.3396 102.684 72.3396 101.953" stroke="#FFC107" stroke-width="10" stroke-linecap="round"/>
<path d="M79.6868 124.529C79.6868 121.948 79.7947 119.344 79.6686 116.765C79.5693 114.734 79.0437 112.747 78.8342 110.733C78.6245 108.717 78.7072 106.922 78.7072 104.885C78.7072 103.799 78.7072 102.713 78.7072 101.626C78.7072 100.97 79.149 100.481 79.197 99.8508C79.2862 98.6775 80.1148 97.869 80.6301 96.8653C80.8854 96.3681 80.9498 95.6195 81.1199 95.0811C81.2676 94.6137 81.4894 94.22 81.6369 93.7651C81.8206 93.1986 82.1118 93.104 81.5371 93.2439C80.5382 93.4871 79.8204 94.3657 78.7797 94.6042C78.3153 94.7106 78.4571 95.1165 77.9725 95.1165C77.7213 95.1165 77.4981 95.3711 77.2378 95.4345" stroke="#FFC107" stroke-width="20" stroke-linecap="round"/>
<path d="M63.5425 126.419C63.5037 125.877 63.4668 125.336 63.4324 124.794C63.353 123.543 63.0013 122.403 64.1542 121.835C64.1188 120.875 64.2017 119.922 64.5027 119.017C64.5317 118.93 65.2194 117.618 65.4007 117.834C65.4778 117.925 65.5326 118.052 65.571 118.199C65.6468 115.485 65.7993 112.771 66.0265 110.061C66.2053 107.928 66.6275 105.815 66.7884 103.684C66.8027 103.495 66.7954 103.319 67.0605 103.419C67.6529 103.642 68.0813 104.243 68.3939 104.735C70.161 107.516 70.5042 110.937 70.5526 114.133C70.6153 118.273 70.1064 122.419 69.0612 126.43C69.1336 128.942 68.595 131.485 67.9313 133.883C67.55 135.26 67.3473 135.74 66.9608 137.009C66.852 137.367 66.9556 137.89 66.6252 138.078C66.5729 138.108 66.529 137.994 66.5163 137.937C66.3191 137.039 66.0155 134.091 65.9902 133.785C65.9273 133.024 65.8706 132.262 65.8203 131.499C65.3747 129.576 65.0729 127.614 64.7022 125.677C64.6752 125.536 64.6477 125.393 64.6202 125.249C64.3247 126.219 64.0991 126.561 63.5425 126.419Z" fill="#FFC107"/>
<path d="M68.9109 132.319C68.629 137.352 67.2103 142.46 65.9721 147.335C65.9385 147.467 65.6314 148.725 65.446 149.11C65.3815 149.244 65.3209 148.834 65.31 148.686C65.1293 146.252 64.9962 143.815 64.8111 141.382C64.3902 135.849 63.7842 130.332 63.4324 124.794C63.3462 123.436 62.9391 122.208 64.4846 121.702C67.0786 120.853 68.6487 122.604 68.9562 125.05C69.3274 128.002 68.717 131.044 67.9313 133.883C67.55 135.26 67.3473 135.74 66.9608 137.009C66.852 137.367 66.9556 137.89 66.6252 138.078C66.5729 138.108 66.529 137.994 66.5163 137.937C66.3191 137.039 66.0155 134.091 65.9902 133.785C65.3373 125.886 65.3642 117.959 66.0265 110.061C66.2053 107.928 66.6275 105.815 66.7884 103.684C66.8027 103.495 66.7954 103.319 67.0605 103.419C67.6529 103.642 68.0813 104.243 68.3939 104.735C70.161 107.516 70.5042 110.937 70.5526 114.133C70.6226 118.754 69.9804 123.382 68.675 127.823C68.2296 129.339 67.7019 131.906 66.6524 133.22C66.354 133.594 66.049 132.444 65.9358 131.984C65.425 129.906 65.104 127.777 64.7022 125.677C64.2946 123.547 63.7937 121.149 64.5027 119.017C64.5317 118.93 65.2194 117.618 65.4007 117.834C65.7783 118.283 65.623 119.566 65.6002 120.033C65.5223 121.625 65.2031 123.179 64.7748 124.714C64.1884 126.816 64.0335 126.859 62.0537 125.642" stroke="#FFC107" stroke-width="20" stroke-linecap="round"/>
<path d="M57.809 97.6602C57.809 98.5022 57.809 101.028 57.809 100.186C57.809 99.7203 57.6457 98.6384 57.6457 99.727C57.6457 101.198 57.539 102.704 57.6548 104.17C57.6827 104.523 57.809 104.809 57.809 105.168C57.809 105.627 58.1063 105.812 58.1355 106.21C58.3475 109.1 57.809 111.836 57.809 114.672C57.809 117.534 57.809 120.396 57.809 123.257C57.809 124.718 57.809 126.178 57.809 127.638C57.809 128.577 57.4825 129.537 57.4825 130.491C57.4825 130.839 57.0836 132.814 57.4825 131.843" stroke="#FFC107" stroke-width="20" stroke-linecap="round"/>
<path d="M56.6659 101.795C56.6659 103.422 56.3974 105.278 56.684 106.883C56.7342 107.164 57.15 106.937 57.3189 106.883" stroke="#FFC107" stroke-width="20" stroke-linecap="round"/>
<path d="M54.0537 118.646C54.0537 120.666 54.7068 122.56 54.7068 124.6C54.7068 126.752 54.87 128.959 54.87 131.136C54.87 132.484 55.3598 133.61 55.3598 134.899C55.3598 136.223 55.8496 137.501 55.8496 138.838C55.8496 139.887 56.0129 140.902 56.0129 141.929C56.0129 142.553 56.1762 143.131 56.1762 143.767C56.1762 144.124 56.3292 144.449 56.3394 144.809C56.3572 145.432 56.3108 145.44 56.9925 145.357" stroke="#FFC107" stroke-width="20" stroke-linecap="round"/>
<path d="M54.2173 148.219C54.2173 151.076 54.5438 153.795 54.5438 156.645" stroke="#FFC107" stroke-width="20" stroke-linecap="round"/>
<path d="M51.8665 163.095C51.8665 163.654 51.7745 164.32 51.9489 164.863C52.1625 165.529 52.079 166.307 52.1381 166.997C52.2157 167.903 51.9914 168.736 51.5918 169.514" stroke="#FFC107" stroke-width="20" stroke-linecap="round"/>
<path d="M66.6995 152.183C66.6735 152.335 66.5758 152.491 66.5164 152.628C66.2861 153.163 66.103 153.708 65.9152 154.257C65.8377 154.483 65.7048 154.709 65.6527 154.938C65.5658 155.318 65.2847 155.702 65.0758 156.034C64.9304 156.266 64.8426 156.527 64.7096 156.76C64.6311 156.897 64.5113 156.962 64.4471 157.116C64.3907 157.252 64.3113 157.406 64.2152 157.52C64.1034 157.653 64.0252 157.781 63.9527 157.94C63.903 158.048 63.8656 158.088 63.8398 158.201C63.807 158.345 63.643 158.358 63.62 158.492C63.5901 158.667 63.411 158.779 63.4033 158.965C63.3952 159.163 62.856 159.396 63.2385 159.458" stroke="#FFC107" stroke-width="20" stroke-linecap="round"/>
<path d="M63.2383 159.458C63.2383 159.999 63.2364 160.527 63.1864 161.063C63.1672 161.269 63.0735 161.445 63.0735 161.651C63.0735 161.778 63.0726 161.867 63.0186 161.972" stroke="#FFC107" stroke-width="20" stroke-linecap="round"/>
<path d="M63.0183 161.973C63.0183 162.516 62.9429 163.287 62.6338 163.738" stroke="#FFC107" stroke-width="20" stroke-linecap="round"/>
<path d="M62.6346 163.737C62.4689 164.242 62.1664 164.724 61.8105 165.128" stroke="#FFC107" stroke-width="20" stroke-linecap="round"/>
<path d="M61.3709 165.61C61.3709 165.805 61.2075 166 61.1512 166.187C61.0819 166.417 60.9797 166.619 60.8887 166.841C60.8102 167.032 60.7419 167.388 60.5469 167.483" stroke="#FFC107" stroke-width="20" stroke-linecap="round"/>
<path d="M60.5465 167.481C60.0862 167.83 59.9128 168.519 59.4722 168.872C59.2802 169.026 58.8984 169.371 58.8984 169.621" stroke="#FFC107" stroke-width="20" stroke-linecap="round"/>
<path d="M58.8986 169.622C58.3722 170.263 57.5419 170.712 57.0308 171.334" stroke="#FFC107" stroke-width="20" stroke-linecap="round"/>
<path d="M57.0306 171.334C56.7736 171.784 56.326 172.118 56.0967 172.564" stroke="#FFC107" stroke-width="20" stroke-linecap="round"/>
<path d="M56.0968 172.565C55.4378 172.986 54.8801 173.483 54.3389 174.01" stroke="#FFC107" stroke-width="20" stroke-linecap="round"/>
<path d="M54.3385 174.009C53.727 174.477 53.3067 175.163 52.724 175.667C52.6747 175.71 52.6097 175.824 52.5806 175.881" stroke="#FFC107" stroke-width="20" stroke-linecap="round"/>
<path d="M52.5809 175.882C52.4435 176.136 51.9766 176.547 51.9766 176.845" stroke="#FFC107" stroke-width="20" stroke-linecap="round"/>
<path d="M51.9766 176.845C51.9597 176.91 51.8272 176.982 51.7843 177.056C51.7349 177.141 51.7147 177.216 51.6745 177.302C51.6173 177.425 51.5371 177.564 51.5371 177.701" stroke="#FFC107" stroke-width="20" stroke-linecap="round"/>
<path d="M73.8487 139.994C73.8487 140.529 74.5105 140.985 74.6027 141.524C74.688 142.022 74.6735 142.541 74.6735 143.061C74.6735 143.875 74.6735 144.689 74.6735 145.503C74.6735 147.031 74.7861 148.618 74.2653 150.067C74.0943 150.543 73.8611 151.139 73.8487 151.662C73.8352 152.226 73.4989 152.554 73.3237 153.065" stroke="#FFC107" stroke-width="20" stroke-linecap="round"/>
<path d="M73.3241 153.065C73.132 153.751 72.6271 154.401 72.4284 155.078C72.3199 155.448 72.0493 155.758 72.0493 156.132" stroke="#FFC107" stroke-width="20" stroke-linecap="round"/>
<path d="M72.0486 156.132C72.0139 156.47 71.7487 156.772 71.7487 157.122C71.7487 157.475 71.4487 157.639 71.4487 157.957" stroke="#FFC107" stroke-width="20" stroke-linecap="round"/>
<path d="M71.4488 157.957C71.4172 158.511 71.1318 159.074 70.9239 159.58C70.8567 159.744 70.8616 159.927 70.7573 160.075C70.688 160.173 70.5808 160.282 70.5531 160.403C70.4796 160.726 70.249 161.07 70.249 161.389" stroke="#FFC107" stroke-width="20" stroke-linecap="round"/>
<path d="M70.249 161.39C73.4957 157.27 76.4285 152.895 79.306 148.522C79.5147 148.205 79.7112 147.681 79.9809 147.418C80.02 147.38 80.0006 147.527 80.0309 147.573C80.0763 147.64 80.1625 147.666 80.2059 147.735C80.4289 148.09 80.6888 148.229 80.9891 148.522C81.1471 148.676 81.0584 148.843 81.1807 148.992C81.2528 149.08 81.4146 149.359 81.4223 149.487C81.4404 149.786 81.7102 150.403 81.2724 150.51" stroke="#FFC107" stroke-width="20" stroke-linecap="round"/>
<path d="M81.2725 150.509C81.2725 149.679 81.2417 148.794 81.4558 147.989C81.5596 147.6 81.7635 146.937 81.5725 146.565" stroke="#FFC107" stroke-width="20" stroke-linecap="round"/>
<path d="M81.573 146.566C81.573 145.499 81.4976 144.406 81.4976 143.353" stroke="#FFC107" stroke-width="20" stroke-linecap="round"/>
<path d="M81.4973 143.353C81.4973 142.319 81.4973 141.286 81.4973 140.253C81.4973 139.218 81.0474 138.187 81.0474 137.146" stroke="#FFC107" stroke-width="20" stroke-linecap="round"/>
<path d="M81.0474 137.146C81.0474 136.19 81.195 135.231 81.289 134.281C81.3272 133.895 81.3765 133.595 81.489 133.239C81.5906 132.917 81.5723 132.594 81.5723 132.253" stroke="#FFC107" stroke-width="20" stroke-linecap="round"/>
<path d="M81.5723 125.316C81.5723 124.705 81.61 124.096 81.6847 123.49C81.7363 123.072 81.9257 122.667 81.9472 122.249C81.9609 121.982 81.8241 121.844 81.6473 122.102" stroke="white" stroke-width="20" stroke-linecap="round"/>
<path d="M79.6059 121.13C79.5904 121.149 79.5758 121.169 79.562 121.191C79.6089 121.229 79.6554 121.267 79.6808 121.341C79.7727 121.61 79.9729 121.918 80.1058 122.177C80.2413 122.441 80.7545 123.386 81.089 123.386C81.116 123.386 80.4181 122.454 80.3474 122.38C80.1257 122.148 79.9508 121.788 79.7725 121.52C79.694 121.402 79.6973 121.021 79.6059 121.13Z" fill="#FFC107"/>
<path d="M74.8232 143.354C74.8232 142.482 74.8248 141.631 74.9566 140.766C75.2125 139.085 75.8554 137.567 76.3064 135.938C76.6519 134.69 77.2178 133.503 77.6645 132.287C77.8172 131.871 78.0478 131.414 78.0478 130.972C78.0478 129.689 78.0592 128.405 78.331 127.143C78.6928 125.462 78.7676 123.744 79.2809 122.088C79.36 121.832 79.4288 121.341 79.6059 121.13C79.6973 121.021 79.694 121.402 79.7725 121.52C79.9508 121.788 80.1257 122.148 80.3474 122.38C80.4181 122.454 81.116 123.386 81.089 123.386C80.7545 123.386 80.2413 122.441 80.1058 122.177C79.9729 121.918 79.7727 121.61 79.6808 121.341C79.6343 121.205 79.5176 121.19 79.4559 121.082C79.3906 120.967 79.4174 120.853 79.3809 120.733C79.332 120.572 79.3226 120.449 79.3226 120.278" stroke="#FFC107" stroke-width="20" stroke-linecap="round"/>
<path d="M83.8223 129.332C83.8223 129.101 83.8223 128.87 83.8223 128.639C83.8223 128.254 83.6433 127.953 83.5973 127.58C83.5464 127.166 83.2224 126.868 83.2224 126.452C83.2224 126.145 83.1302 125.917 83.0141 125.649C82.9106 125.409 82.9893 125.233 82.8474 124.991C82.7293 124.79 82.5456 124.576 82.4892 124.35C82.3117 123.642 82.0919 122.961 81.9101 122.253C81.7805 121.748 81.7976 121.267 81.7976 120.748C81.7976 120.38 81.7226 120.017 81.7226 119.661C81.7226 119.433 81.6966 119.163 81.6309 118.947C81.5026 118.525 81.5726 118.011 81.5726 117.575C81.5726 116.805 81.5426 116.076 81.406 115.328C81.3132 114.82 81.1227 114.249 81.1227 113.738C81.1227 113.206 81.1227 112.675 81.1227 112.143C81.1227 111.408 81.1227 110.672 81.1227 109.936C81.1227 109.284 80.9806 108.428 81.1602 107.798C81.3079 107.281 81.4226 106.607 81.4226 106.078C81.4226 105.849 81.5726 105.717 81.5726 105.453C81.5726 105.012 81.6476 104.582 81.6476 104.139C81.6476 103.39 81.845 102.644 81.8726 101.891C81.8952 101.276 81.9296 100.728 82.0184 100.123C82.0323 100.028 82.0226 99.9262 82.0226 99.8306C82.0226 99.6038 82.1936 99.4847 82.2309 99.2707C82.3704 98.4687 82.2475 97.575 82.2475 96.7676C82.2475 94.3581 82.3225 91.9461 82.3225 89.5342" stroke="#FFC107" stroke-width="20" stroke-linecap="round"/>
<path d="M84.1973 113.632C84.2573 113.34 84.4268 113.072 84.5389 112.797C84.7177 112.357 84.8337 111.89 85.0513 111.466C85.1089 111.354 85.1935 111.254 85.2471 111.149" stroke="#FFC107" stroke-width="20" stroke-linecap="round"/>
<path d="M84.6465 122.761V122.615" stroke="#FFC107" stroke-width="20" stroke-linecap="round"/>
<path d="M69.9491 103.116C69.9306 102.449 69.5975 101.819 69.5742 101.161C69.5672 100.965 69.6377 100.673 69.5575 100.487C69.3766 100.069 69.3762 99.6036 69.1992 99.1729" stroke="#FFC107" stroke-width="20" stroke-linecap="round"/>
<path d="M69.1994 99.1733C69.1994 98.5612 68.8994 97.952 68.8994 97.3477" stroke="#FFC107" stroke-width="20" stroke-linecap="round"/>
<path d="M68.8997 97.3481C68.8997 96.9228 68.5998 96.6175 68.5998 96.1797C68.5998 95.887 68.4206 95.7577 68.2998 95.5225" stroke="#FFC107" stroke-width="20" stroke-linecap="round"/>
<path d="M68.2998 95.522C68.2998 94.9054 68.6927 94.9378 69.1997 94.9378" stroke="#FFC107" stroke-width="20" stroke-linecap="round"/>
<path d="M69.1992 94.9382C69.2252 94.8371 69.4355 94.6601 69.4992 94.5325C69.5604 94.4097 69.6641 94.3427 69.7241 94.2404C69.9341 93.8826 70.2103 93.897 70.549 94.0619" stroke="#FFC107" stroke-width="20" stroke-linecap="round"/>
<path d="M70.5493 94.0618C70.5701 93.7186 71.0065 93.3281 71.2992 93.1855" stroke="#FFC107" stroke-width="20" stroke-linecap="round"/>
<path d="M71.2988 93.185C71.5518 92.9633 71.7918 92.7455 72.0321 92.5115C72.1822 92.3653 72.3887 92.0766 72.5736 92.0166" stroke="#FFC107" stroke-width="20" stroke-linecap="round"/>
<path d="M67.8498 97.202C67.3272 97.1216 66.9251 96.3196 66.5334 95.989C66.273 95.7693 66.1322 95.4618 65.8668 95.2344C65.717 95.1061 65.5899 95.0013 65.4502 94.8652" stroke="#FFC107" stroke-width="20" stroke-linecap="round"/>
<path d="M57.5757 99.3925C57.4353 99.3621 57.3076 99.1745 57.1424 99.1166C57.0294 99.077 56.9291 98.9973 56.8258 98.9381C56.5537 98.7822 56.4191 98.5442 56.1509 98.3701" stroke="#FFC107" stroke-width="20" stroke-linecap="round"/>
<path d="M73.3984 97.787C73.7069 97.0219 73.9194 96.1751 74.3358 95.4543C74.5292 95.1195 74.7111 94.792 74.8607 94.436C75.0677 93.9434 75.5331 93.6779 75.7856 93.227C76.0916 92.6807 76.5554 92.0201 77.0271 91.5961C77.3116 91.3404 77.5236 91.0304 77.8228 90.7807C78.1356 90.5196 78.4155 90.2103 78.706 89.9166C78.8496 89.7713 79.086 89.7728 79.1892 89.6083C79.2864 89.4535 79.4005 89.3342 79.4892 89.1701C79.5862 88.9907 79.8433 88.9618 79.9641 88.7888C80.0591 88.6527 80.0675 88.5247 80.2224 88.4399C80.4496 88.3155 80.5588 87.9287 80.8223 87.9287" stroke="#FFC107" stroke-width="20" stroke-linecap="round"/>
<path d="M83.147 87.9278C83.3667 87.9153 83.4913 87.7237 83.6719 87.6357" stroke="#FFC107" stroke-width="20" stroke-linecap="round"/>
<path d="M89.7466 84.6417C89.7894 84.0992 89.9715 83.5767 89.9715 83.0352" stroke="#FFC107" stroke-width="10" stroke-linecap="round"/>
<path d="M48.4279 183.518C48.0397 184.13 47.8095 184.81 47.4531 185.432C47.3419 185.627 47.1746 185.812 47.0781 186" stroke="#FFC107" stroke-width="10" stroke-linecap="round"/>
<path d="M91.6592 158.091L93.4916 76.0296" stroke="#007BFF" stroke-width="5" stroke-linecap="round"/>
<path d="M91.6592 158.091L137.615 177.095" stroke="#007BFF" stroke-width="5" stroke-linecap="round"/>
<line x1="2.5" y1="-2.5" x2="41.9433" y2="-2.5" transform="matrix(-0.845089 -0.534625 0.567048 -0.823684 130.407 96.7607)" stroke="#007BFF" stroke-width="5" stroke-linecap="round"/>
<path d="M129.505 96.7607L137.615 177.095" stroke="#007BFF" stroke-width="5" stroke-linecap="round"/>
<path d="M97.0984 81.9863C97.0984 82.6081 97.2401 82.9498 97.4561 83.5192C97.5803 83.8466 97.4092 84.2601 97.4876 84.5983C97.6643 85.3605 97.9594 86.1752 98.5081 86.7968C99.8072 88.2685 101.545 90.3246 101.643 92.2931C101.697 93.3819 101.992 94.5063 102.117 95.6009C102.323 97.4236 102.211 99.2865 102.211 101.117C102.211 102.089 102.211 103.06 102.211 104.032C102.211 104.558 101.949 102.915 101.896 102.751C101.208 100.653 100.675 98.5147 100.065 96.3875C99.7687 95.3543 99.1434 94.3335 99.0131 93.2713C98.7676 91.2713 98.9927 94.2909 99.0026 94.7639C99.0531 97.1872 99.3708 99.6145 99.3708 102.035C99.3708 105.434 99.6728 108.984 99.2866 112.362C99.2189 112.954 98.992 114.723 98.992 114.127C98.992 113.237 98.9836 112.36 98.8658 111.475C98.5468 109.077 98.2346 106.874 98.2346 104.455C98.2346 102.418 98.2346 100.381 98.2346 98.344C98.2346 96.1688 97.449 94.1279 97.2983 91.9603C97.2516 91.2885 97.2878 90.6066 97.2878 89.9332C97.2878 89.8828 97.2878 89.3395 97.2878 89.671C97.2878 90.6623 97.5942 91.5816 97.9821 92.4948C99.25 95.4795 100.76 98.3668 102.359 101.188C104.074 104.217 104.962 107.678 105.662 111.031C106.841 116.684 107.437 122.584 107.745 128.336C107.783 129.057 107.892 129.783 107.892 130.505C107.892 131.383 107.86 128.746 107.766 127.873C107.272 123.274 105.722 118.836 104.757 114.318C104.579 113.486 104.584 112.622 104.389 111.797C104.365 111.698 104.333 111.611 104.305 111.515C104.176 111.084 104.092 112.387 104 112.826C103.375 115.799 102.856 118.769 102.674 121.801C102.633 122.496 102.577 124.658 102.548 125.432C102.531 125.876 102.647 127.19 102.38 127.671C102.339 127.744 101.025 125.014 100.97 124.847C100.301 122.816 99.6463 120.665 99.3287 118.554C99.2093 117.761 99.1814 115.352 99.1814 116.154C99.1814 118.013 99.0838 119.864 98.992 121.721C98.9152 123.276 98.8672 124.183 98.8237 125.694C98.8076 126.253 98.9733 127.871 98.7185 127.368C98.0955 126.139 98.1812 124.254 98.0242 122.941C97.6535 119.842 97.2878 116.803 97.2878 113.693C97.2878 111.043 97.6313 118.986 97.94 121.62C98.2056 123.886 98.6278 126.194 98.8027 128.457C99.0674 131.883 98.6885 135.288 99.0867 138.724C99.2055 139.748 99.3523 140.612 99.6548 141.598C99.8242 142.15 99.7245 142.625 100.034 143.151C100.392 143.762 100.385 143.973 100.286 142.99C99.9152 139.316 98.5835 135.854 97.5192 132.34C97.3853 131.898 97.369 131.479 97.2772 131.039C97.1255 130.312 97.1015 132.516 97.0984 133.258C97.0853 136.364 97.0984 139.47 97.0984 142.576C97.0984 143.421 97.0645 144.274 97.0984 145.118C97.128 145.855 98.6362 147.096 99.4128 146.63C101.449 145.411 102.916 142.412 104.063 140.438C105.072 138.701 105.693 136.805 106.756 135.093C107.293 134.23 107.934 132.887 108.923 132.391C109.15 132.277 109.64 132.157 109.786 132.471C110.041 133.019 110.2 134.33 110.249 134.71C110.587 137.325 110.79 139.963 110.88 142.596C111.006 146.285 111.43 157.347 111.29 153.66C111.162 150.272 110.345 146.866 109.828 143.524C108.746 136.533 107.411 129.56 106.493 122.548C106.28 120.919 106.069 119.161 106.188 117.505C106.275 116.297 107.69 118.456 107.798 118.655C109.424 121.645 109.497 125.445 109.87 128.72C110.102 130.755 110.061 133.122 110.638 135.113C110.76 135.536 110.733 134.24 110.733 133.802C110.733 128.715 110.734 123.629 110.522 118.544C110.271 112.517 110.006 106.481 109.596 100.462C109.455 98.3803 109.218 96.2973 109.218 94.2092C109.218 93.116 109.624 96.3607 109.828 97.4364C110.651 101.776 111.055 106.097 111.111 110.506C111.129 111.876 111.378 112.634 110.67 111.212C109.715 109.297 108.87 107.422 108.166 105.403C107.437 103.315 106.849 101.254 106.272 99.1306C106.011 98.1682 105.47 97.2209 105.43 96.2262C105.407 95.6303 105.173 94.8874 104.947 94.3302C104.636 93.5649 104.858 92.6975 104.484 91.9804C104.205 91.4459 104.294 90.8415 104.294 90.2559C104.294 89.2226 105.926 90.4733 106.377 90.6896C107.085 91.0289 108.126 91.2063 108.692 91.7485C109.726 92.74 106.195 90.2775 105.031 89.429C104.265 88.871 103.186 88.0636 102.737 87.2506C101.941 85.8088 104.625 87.8542 105.115 88.0776C105.802 88.3912 106.496 89.1417 107.072 89.6508C108.376 90.8054 109.735 91.998 111.374 92.6965C111.876 92.9101 112.122 93.1837 112.521 93.5234C113.041 93.9662 113.984 94.2601 114.52 94.774C115.469 95.6837 116.295 96.8964 117.36 97.6986C117.756 97.9966 118.378 99.5825 118.486 100.048C118.582 100.462 118.753 100.791 119.138 101.037C119.36 101.178 119.297 101.588 119.538 101.773C119.55 101.782 119.817 102.245 119.822 102.196C119.878 101.712 119.895 101.069 119.78 100.603C119.625 99.9769 118.591 98.0309 120.201 98.8684C122.297 99.9594 122.473 102.539 122.473 104.516C122.473 108.267 121.939 111.887 121.295 115.589C120.948 117.585 120.509 119.558 120.159 121.539C120.132 121.694 120.076 122.156 119.791 122.054C118.375 121.545 118.044 116.888 117.929 116.275C116.854 110.557 116.122 104.802 115.298 99.0499C115.17 98.1549 114.817 95.4819 115.088 96.3472C115.206 96.7227 115.174 97.1269 115.214 97.517C115.528 100.576 115.797 103.639 116.035 106.704C116.563 113.514 116.847 120.343 117.445 127.146C117.746 130.578 118.183 134 118.57 137.423C118.612 137.789 118.686 138.89 118.686 138.522C118.686 133.935 117.551 129.436 117.255 124.867C117.168 123.522 117.212 122.194 117.318 120.853C117.322 120.813 117.373 119.403 117.666 119.835C118.403 120.922 118.608 122.508 118.77 123.738C119.633 130.291 119.604 136.927 120.19 143.504C120.367 145.488 121.049 151.423 120.948 149.434C120.591 142.416 120.155 135.298 119.254 128.326C119.075 126.939 118.354 124.802 119.338 123.516C119.796 122.917 121.155 128.086 121.253 128.447C121.601 129.73 121.872 131.189 122.473 132.391C122.535 132.515 122.651 132.774 122.768 132.693C122.968 132.554 122.852 131.183 122.852 131.18C122.852 127.819 122.852 124.457 122.852 121.095C122.852 118.567 122.663 110.983 122.663 113.512C122.663 119.106 123.943 124.599 124.178 130.172C124.195 130.578 124.178 131.509 124.178 130.434C124.178 128.597 123.828 126.905 123.336 125.129C122.521 122.188 121.559 119.127 121.526 116.053C121.514 114.877 121.271 113.404 121.569 112.261C121.717 111.694 121.573 110.956 121.989 110.486C122.381 110.044 122.646 109.15 122.663 108.57C122.707 107.006 122.663 105.435 122.663 103.871C122.663 103.232 122.663 102.593 122.663 101.954C122.663 101.75 122.549 101.063 122.852 101.047C123.396 101.018 123.42 101.433 123.42 101.813C123.42 102.812 123.799 103.643 123.799 104.597C123.799 105.531 123.799 106.466 123.799 107.4C123.799 110.833 124.746 114.226 124.746 117.657C124.746 120.797 124.935 123.906 124.935 127.046C124.935 130.963 125.56 134.706 125.04 138.623C124.381 143.585 123.136 149.946 119.38 153.649C118.223 154.791 116.027 155.258 114.415 155.102C112.847 154.95 111.431 153.767 110.038 153.145C107.685 152.095 104.915 151.387 102.927 149.716C101.964 148.908 101.101 148.006 100.118 147.215C99.8405 146.992 99.652 146.792 99.7916 146.429C100.167 145.451 101.758 145.164 102.643 145.017C105.245 144.585 108.025 144.603 110.627 145.017C111.778 145.2 114.351 145.44 115.277 146.328C115.935 146.959 116.035 147.652 116.035 148.506C116.035 149.423 116.183 149.939 115.109 149.424C114.785 149.268 114.863 149.084 114.667 148.869C114.484 148.668 113.591 148.945 113.352 148.97C110.722 149.25 108.129 149.788 105.483 149.878C102.905 149.965 100.373 150.422 97.7927 150.422C97.1548 150.422 96.909 150.378 96.909 151.007C96.909 151.567 96.7037 152.721 97.0563 153.186C97.372 153.602 97.3983 154.332 97.8664 154.668C98.4401 155.081 99.3407 154.961 100.034 154.961C101.679 154.961 102.957 156.209 104.294 156.957C105.284 157.511 106.183 158.269 107.051 158.954C107.802 159.548 108.922 159.855 109.828 160.184C110.544 160.445 111.248 160.71 111.974 160.951C112.46 161.112 113.527 161.367 113.847 161.717C114.269 162.18 115.071 162.289 115.656 162.443C116.615 162.696 117.371 163.239 118.265 163.593C118.974 163.874 119.787 164.028 120.538 164.178C121.113 164.294 121.657 164.7 122.2 164.945C123.315 165.448 124.484 165.822 125.587 166.316C126.361 166.662 127.237 166.979 127.965 167.405C128.268 167.583 129.307 168.807 128.701 167.839C128.38 167.326 127.485 166.32 126.997 165.953C126.35 165.466 126.417 165.121 125.977 164.511C125.181 163.409 124.417 161.638 124.178 160.316C123.897 158.77 122.934 157.155 123.946 155.646C124.717 154.497 125.403 156.266 125.545 157.038C125.954 159.26 126.963 161.442 128.028 163.391C128.36 163.998 128.649 164.632 129.185 165.116C129.565 165.459 129.382 165.729 129.574 166.135C129.887 166.794 129.697 168.057 130.237 168.575C130.805 169.12 130.919 170.007 131.563 170.431C131.85 170.62 131.745 171.082 132.173 171.116C132.393 171.134 132.675 171.389 132.846 171.52C133.545 172.056 132.614 169.615 132.404 169.2C132.075 168.549 132.101 167.81 131.752 167.224C131.223 166.336 131.405 169.359 131.847 170.29C132.141 170.911 132.437 171.147 132.93 171.621C134.073 172.716 132.2 169.744 131.942 169.301C130.525 166.872 129.359 164.564 128.607 161.838C127.975 159.551 127.525 156.985 126.46 154.86C125.898 153.736 125.939 152.173 125.787 150.947C125.56 149.118 125.692 147.227 125.692 145.39C125.692 143.706 125.692 142.022 125.692 140.337C125.692 139.691 125.519 139.116 125.503 140.055C125.395 146.504 127.636 152.373 129.396 158.49C129.846 160.057 130.216 161.776 130.5 163.381C130.55 163.66 130.805 166.482 130.805 165.066C130.805 161.9 130.616 158.742 130.616 155.576C130.616 152.113 130.605 148.695 130.227 145.249C130.088 143.988 129.708 142.73 129.29 141.527C129.109 141.007 128.419 140.349 128.344 139.894C128.288 139.556 127.858 138.805 127.628 139.49C127.295 140.484 127.018 141.811 127.018 142.859C127.018 143.392 126.988 141.786 126.871 141.265C126.741 140.691 126.651 139.86 126.639 139.268C126.619 138.263 127.077 135.811 125.44 136.767C124.937 137.061 124.787 137.841 124.661 138.341C124.399 139.384 124.171 140.428 123.904 141.477C123.748 142.09 123.857 143.827 123.462 143.323C123.023 142.761 123.478 140.665 123.515 140.025C123.588 138.743 123.609 137.466 123.609 136.182C123.609 133.551 123.883 131.139 124.672 128.619C125.089 127.288 125.314 126.094 125.314 124.686C125.314 123.927 125.802 123.297 125.966 122.558C126.072 122.079 126.033 121.633 126.071 121.156C126.081 121.031 126.328 120.537 126.429 120.874C126.608 121.473 126.337 122.351 126.303 122.951C126.133 125.923 126.45 128.893 126.45 131.866C126.45 134.849 127.586 137.772 127.586 140.801" stroke="#007BFF" stroke-width="10" stroke-linecap="round"/>
<path d="M118.875 160.769C118.875 159.627 119.444 158.679 119.444 157.502" stroke="#007BFF" stroke-width="10" stroke-linecap="round"/>
<path d="M207 161.545L137.615 177.093" stroke="black" stroke-width="5" stroke-linecap="round"/>
<path d="M207 161.545L188.571 81.296" stroke="black" stroke-width="5" stroke-linecap="round"/>
<path d="M129.505 96.7598L188.363 80.8612" stroke="black" stroke-width="5" stroke-linecap="round"/>
<path d="M129.505 97.624L137.615 177.094" stroke="black" stroke-width="5" stroke-linecap="round"/>
<path d="M133.17 98.6406C133.469 99.4411 134.336 100.174 134.853 100.852C135.432 101.611 136.028 102.228 136.648 102.913C136.983 103.284 137.242 103.778 137.697 104.06C137.927 104.203 137.934 104.48 138.113 104.659C138.56 105.103 139.169 105.438 139.656 105.839C141.619 107.452 144.232 108 146.281 109.571C148.581 111.335 149.867 113.325 150.391 116.163C150.469 116.58 150.529 117.049 150.487 117.476C150.465 117.696 150.245 116.524 150.244 116.52C149.722 113.67 149.638 111.189 150.808 108.432C152.48 104.49 155.167 100.777 158.958 98.4743C162.245 96.4777 167.098 94.8733 170.994 96.0471C175.177 97.3073 173.597 102.804 172.555 105.623C171.478 108.536 170.163 111.394 168.497 114.043C167.453 115.703 166.146 117.609 164.387 118.673C164.235 118.765 163.258 119.346 162.999 119.097C162.759 118.867 163.272 118.055 163.329 117.958C164.298 116.314 165.686 114.879 167.248 113.736C167.801 113.331 170.029 111.801 170.847 112.381C171.238 112.658 171.145 113.407 171.081 113.769C170.718 115.829 169.457 117.623 168.167 119.255C166.755 121.042 164.692 123.207 162.271 123.677C160.284 124.063 159.911 121.865 159.713 120.51C159.068 116.102 159.665 111.616 161.907 107.684C162.277 107.034 163.454 104.808 164.56 104.808C165.214 104.808 165.509 105.435 165.427 105.972C165.114 108.034 163.193 110.092 161.438 111.192C161.107 111.4 160.019 112.005 159.739 111.333C159.629 111.069 159.766 110.58 159.843 110.344C160.455 108.463 161.77 106.747 163.069 105.257C165.003 103.037 167.536 100.445 170.56 99.6547C171.087 99.517 172.074 99.2378 171.601 100.112C171.023 101.181 169.948 102.084 169.017 102.847C166.497 104.912 163.687 106.724 160.831 108.333C159.586 109.035 157.268 110.625 155.646 110.452C154.522 110.333 156.801 107.213 156.903 107.086C159.735 103.559 163.401 100.992 167.265 98.6239C168.632 97.7863 166.531 99.7934 166.476 99.8375C162.398 103.136 157.512 105.528 152.455 107.119C151.202 107.513 149.147 108.241 147.755 107.917C147.183 107.784 151.675 101.709 152.022 101.276C152.682 100.45 153.356 99.6267 154.068 98.84C154.087 98.8186 154.551 98.4783 154.345 98.5242C152.613 98.9104 150.902 99.3049 149.117 99.372C147.83 99.4204 146.537 99.3887 145.249 99.3887C144.186 99.3887 145.716 98.9294 146.073 98.7569C146.667 98.4705 147.263 98.2047 147.92 98.0836C148.066 98.0568 148.51 98.0421 148.362 98.0421C147.345 98.0421 146.327 98.0495 145.31 98.0421C144.401 98.0354 143.523 97.8924 142.613 97.8924C142.046 97.8924 141.81 98.2424 141.356 98.4909C140.967 98.7039 141.311 99.0584 141.564 99.2806C143.097 100.628 145.597 100.982 147.599 101.034C150.344 101.106 152.646 100.516 155.23 99.638C156.565 99.184 158.007 98.8432 159.392 98.5574C159.498 98.5356 161.849 98.2745 161.811 98.3995C161.709 98.7433 161.008 99.1806 160.762 99.3554C158.791 100.755 156.56 101.903 154.363 102.93C150.65 104.664 146.581 106.224 142.405 106.404C141.917 106.425 140.194 106.762 140.194 105.939C140.194 105.462 140.31 105.138 140.688 104.792C142.755 102.902 145.543 101.615 147.963 100.203C150.765 98.5697 153.297 97.0176 156.435 96.1469C157.59 95.8265 158.692 95.2565 159.843 94.9C161.754 94.3084 163.762 93.9524 165.739 93.6365C166.629 93.4943 167.523 93.1987 168.419 93.1129C169.426 93.0163 167.352 93.1046 167.335 93.1046C164.767 93.1046 162.211 93.051 159.696 93.6199C158.61 93.8655 157.496 94.2724 156.392 94.4179C154.668 94.6451 153.065 94.9704 151.354 95.2741C150.828 95.3675 149.813 95.3428 149.403 95.7146C149.235 95.8665 148.868 95.9387 148.752 96.097C148.734 96.122 151.818 96.2466 152.126 96.2466C153.587 96.2466 155.052 96.2761 156.513 96.2466C157.209 96.2326 157.829 95.9474 158.525 95.9474C159.621 95.9474 160.291 95.2379 161.213 94.8418C163.669 93.7863 166.083 92.4834 168.653 91.6416C169.966 91.2113 171.182 90.5285 172.477 90.0539C173.171 89.7993 173.919 89.6935 174.61 89.4388C176.168 88.8643 177.831 88.2047 179.561 88.167C180.82 88.1396 181.916 87.7436 183.134 87.5769C183.429 87.5364 185.439 87.122 185.458 87.4189C185.505 88.1912 185.458 88.9823 185.458 89.7547C185.458 91.7021 185.77 93.6199 185.77 95.565C185.77 97.3558 184.467 100.121 182.215 99.2058C181.085 98.7468 179.776 97.2936 179.474 96.1635C179.328 95.6137 179.188 94.5036 179.405 93.9524C179.696 93.2152 182.282 93.6737 182.848 93.8028C183.523 93.9569 184.437 94.2931 184.504 95.0496C184.772 98.0754 183.829 101.657 182.648 104.426C182.154 105.586 181.515 106.899 180.784 107.95C180.179 108.82 181.822 106.076 182.596 105.34C183.254 104.715 184.759 103.647 185.839 104.268C186.547 104.675 187.043 106.637 186.992 104.592C186.951 102.891 186.706 101.21 186.706 99.505C186.706 98.2028 188.36 100.775 188.475 100.951C189.979 103.263 191.857 105.995 191.857 108.807C191.857 109.84 191.965 110.878 191.319 111.774C190.758 112.552 189.752 113.09 188.891 113.503C184.917 115.408 179.726 115.949 177.315 111.666C176.217 109.715 176.232 107.687 176.257 105.515C176.273 104.186 176.292 102.853 176.474 101.533C176.525 101.167 176.628 99.6272 177.029 99.3388C177.449 99.0371 177.939 99.8808 178.26 100.278C180.217 102.696 180.518 106.093 180.749 109.023C181.277 115.725 180.418 122.4 180.307 129.097C180.226 133.955 178.902 119.442 178.902 114.584C178.902 114.351 178.902 114.118 178.902 113.885C178.902 113.63 179.154 113.04 178.902 113.121C178.649 113.202 178.232 119.874 178.226 119.92C177.116 127.767 174.792 135.197 171.558 142.463C171.249 143.157 170.919 144.693 170.439 143.261C168.812 138.402 169.328 132.754 169.537 127.734C169.616 125.854 169.614 123.976 170.682 122.339C170.719 122.283 170.827 122.102 170.942 122.131C171.428 122.254 171.112 123.787 171.098 123.877C170.642 126.748 169.459 128.886 167.456 131.025C166.936 131.581 166.143 132.616 165.869 131.358C165.559 129.934 165.556 128.432 165.514 126.986C165.465 125.34 165.348 123.596 165.653 121.965C165.944 120.404 166.877 118.222 168.722 117.892C170.79 117.522 172.48 118.594 173.578 120.236C175.028 122.405 175.568 124.975 175.85 127.501C176.302 131.55 176.15 135.765 175.174 139.737C174.445 142.698 173.22 146.808 169.719 147.708C164.292 149.104 160.319 141.651 158.386 138.157C155.16 132.327 152.429 126.177 149.819 120.07C149.79 120.002 147.509 114.364 147.729 114.342C147.967 114.32 148.703 115.34 148.709 115.348C150.407 117.653 151.435 120.352 151.987 123.112C152.548 125.923 152.621 128.806 152.568 131.657C152.542 133.051 152.61 134.738 152.152 136.104C152.081 136.313 151.878 135.741 151.813 135.531C151.385 134.121 151.108 132.699 150.929 131.241C150.527 127.975 150.289 124.554 150.738 121.283C150.85 120.471 151.068 120.445 151.909 120.502C156.248 120.794 159.807 125.168 161.716 128.482C163.223 131.098 164.349 133.919 165.288 136.761C165.35 136.946 165.543 137.491 165.436 137.326C164.271 135.54 163.301 133.61 162.262 131.757C159.588 126.989 156.892 122.181 154.97 117.077C154.664 116.264 154.415 115.433 154.12 114.617C154.064 114.462 153.773 113.858 154.189 114.351C156.884 117.542 158.324 121.84 159.383 125.739C160.727 130.681 160.991 135.666 161.733 140.684C161.853 141.496 161.782 141.637 160.753 141.532C157.582 141.208 154.545 139.288 152.802 136.777C151.14 134.383 150.075 131.603 149.472 128.798C148.783 125.587 149.043 122.327 148.779 119.081C148.701 118.126 148.49 115.264 148.622 116.213C149.185 120.255 149.692 124.265 149.819 128.349C149.922 131.638 150.189 135.188 149.854 138.481C149.829 138.729 149.447 138.156 149.316 137.941C148.318 136.295 147.362 134.614 146.455 132.921C145.086 130.366 143.805 127.752 142.769 125.057C141.995 123.041 141.727 121.262 141.529 119.139C141.46 118.391 141.287 117.646 141.287 116.894C141.287 116.689 141.314 117.348 141.339 117.418C141.592 118.148 142.124 118.817 142.57 119.438C144.115 121.59 145.592 123.727 146.906 126.021C148.426 128.676 149.788 131.39 151.198 134.093C152.738 137.046 147.82 128.338 146.108 125.473C144.701 123.119 143.784 120.605 142.882 118.041C142.466 116.86 141.878 115.72 141.356 114.584C141.046 113.908 140.247 113.607 139.865 112.979C139.407 112.227 138.695 111.736 138.321 110.943C138.166 110.615 137.873 110.48 137.619 110.236C137.342 109.971 137.418 109.607 137.229 109.297C136.962 108.86 136.409 108.159 136.301 107.693C136.283 107.616 136.33 107.134 136.257 107.352C135.923 108.352 136.166 109.598 136.214 110.619C136.3 112.458 136.448 114.305 136.448 116.146C136.448 116.5 136.581 116.864 136.726 117.194C136.96 117.727 137.045 118.4 137.289 118.972C137.635 119.784 137.935 120.962 138 121.832C138.104 123.221 138.6 124.558 138.633 125.971C138.674 127.701 138.931 129.401 139.11 131.117C139.315 133.082 139.855 134.927 140.073 136.91C140.207 138.134 140.658 139.338 140.896 140.56C141.254 142.39 141.806 144.171 142.128 146.021C142.421 147.71 142.787 149.52 142.847 151.224C142.86 151.575 143.004 151.913 143.004 152.255C143.004 152.722 142.822 151.326 142.605 150.908C141.933 149.621 141.862 147.961 141.356 146.594C140.895 145.349 140.392 144.036 139.804 142.845C139.646 142.525 139.57 140.923 139.57 141.914C139.57 143.438 139.57 144.962 139.57 146.486C139.57 147.295 139.57 148.104 139.57 148.913C139.57 149.696 139.57 150.281 139.57 149.055C139.57 147.492 138.978 146.139 138.945 144.608C138.911 142.998 138.42 141.344 138.2 139.737C138.157 139.426 138.165 139.118 138.165 138.806C138.165 138.662 138.021 139.77 138.018 139.903C137.957 141.978 138.009 144.061 138.009 146.137C138.009 146.93 137.924 147.765 138.087 148.548C138.176 148.974 138.068 149.45 138.182 149.861C138.26 150.14 138.477 150.222 138.477 150.559C138.477 151.13 138.43 151.691 138.599 152.238C139.196 154.173 139.19 156.355 139.578 158.34C139.797 159.456 140.038 160.371 140.038 161.531C140.038 162.324 140.038 163.116 140.038 163.909C140.038 165.055 139.902 166.566 140.42 167.616C140.623 168.03 140.53 171.652 141.061 171.797C141.625 171.952 141.99 171.687 142.345 171.323C143.15 170.496 143.513 169.447 143.949 168.414C144.699 166.633 145.493 164.885 145.952 163.011C146.35 161.383 146.676 159.835 146.559 158.157C146.378 155.568 145.858 153.049 145.822 150.443C145.781 147.587 145.317 142.497 148.909 141.449C152.628 140.364 153.545 147.381 153.426 149.628C153.363 150.824 152.055 153.044 150.773 151.357C149.681 149.92 150.055 147.852 150.409 146.253C151.17 142.814 152.394 137.924 155.611 135.738C157.386 134.533 159.746 134.215 161.074 136.212C162.22 137.934 162.502 140.183 162.583 142.164C162.714 145.38 162.156 148.524 160.935 151.515C160.478 152.638 160.046 154.3 158.577 154.3C157.223 154.3 160.053 151.875 160.571 151.607C161.515 151.117 157.797 146.237 157.224 145.339C156.986 144.965 156.807 144.387 156.461 144.092C156.398 144.038 156.422 144.252 156.418 144.333C156.371 145.301 156.268 146.254 156.01 147.193C155.539 148.91 155.032 150.684 154.25 152.296C153.895 153.028 153.383 153.607 152.993 154.3C152.575 155.04 152.13 155.749 151.865 156.511C151.691 157.014 151.69 156.868 152.646 156.744C159.028 155.91 165.092 153.247 171.15 151.274C172.554 150.817 173.957 150.371 175.347 149.878C176.082 149.617 176.577 149.555 175.659 150.21C174.309 151.175 172.71 151.839 171.219 152.562C168.726 153.772 166.292 155.115 163.762 156.253C161.695 157.183 159.551 157.943 157.502 158.913C156.557 159.36 155.602 159.957 154.606 160.285C153.667 160.593 152.181 160.913 151.484 161.664C150.858 162.339 152.387 162.455 152.767 162.496C155.854 162.822 158.596 162.35 161.473 161.307C161.777 161.197 165.483 159.886 165.627 160.368C166.138 162.084 158.828 163.796 157.953 164.042C155.945 164.606 153.85 164.748 151.865 165.338C151.678 165.394 150.015 165.6 150.14 165.912C150.649 167.182 152.244 167.167 153.374 167.167C154.58 167.167 153.497 167.778 152.837 168.032C152.086 168.32 151.159 168.663 150.339 168.663C149.659 168.663 149.571 169.112 148.865 169.112C148.788 169.112 148.188 169.122 148.362 169.112C149.685 169.042 150.96 168.367 152.247 168.09C153.893 167.735 155.497 167.28 157.172 167.051C158.263 166.901 159.436 166.603 160.519 166.569C161.253 166.545 161.995 166.269 162.73 166.269C163.328 166.269 161.543 166.411 160.953 166.502C159.852 166.671 158.73 166.804 157.623 166.934C155.149 167.226 152.68 167.789 150.235 168.248C149.408 168.403 148.695 168.576 148.007 169.029C147.085 169.637 149.192 168.738 149.264 168.713C153.678 167.197 158.082 165.591 162.583 164.324C165.352 163.545 168.258 162.72 171.098 162.196C171.174 162.182 172.034 161.854 172.078 161.939C172.109 161.999 167.474 163.323 167.161 163.393C163.734 164.164 160.337 164.975 156.929 165.812C155.441 166.178 153.882 166.428 152.446 166.851C151.763 167.053 151.049 166.938 150.391 167.317C149.837 167.636 149.243 168.027 148.779 168.447C148.488 168.71 148.289 169 148.007 169.27C147.836 169.434 147.38 169.846 147.382 169.827C147.54 168.772 149.346 168.684 150.14 168.514C152.184 168.075 154.134 167.794 156.201 167.55C157.556 167.389 158.847 166.984 160.181 166.735C160.929 166.596 162.029 166.241 162.791 166.269C164.449 166.331 159.698 167.481 158.065 167.766C156.108 168.107 154.22 168.215 152.238 168.215C150.99 168.215 149.831 168.48 148.744 169.112C147.944 169.578 147.317 170.106 146.437 170.467C145.897 170.689 145.424 171.263 146.195 170.21C147.191 168.848 148.811 168.328 150.348 167.691C153.523 166.376 156.804 165.335 160.138 164.457C164.421 163.329 168.679 162.636 172.789 161.008C174.194 160.451 175.62 159.839 177.038 159.329C177.269 159.246 178.115 159.075 177.627 159.478C177.015 159.986 176.318 160.419 175.624 160.817C174.293 161.58 172.857 162.492 171.393 162.978C171.135 163.063 169.758 163.747 170.361 163.718C172.83 163.596 175.267 162.679 177.732 162.679C178.039 162.679 178.041 162.684 177.654 162.77C176.284 163.073 174.916 163.432 173.561 163.792C171.21 164.417 168.855 165.077 166.511 165.729C165.763 165.937 164.926 165.938 164.196 166.153C163.549 166.344 164.158 166.075 164.439 165.954C165.894 165.326 167.413 164.871 168.913 164.358C171.411 163.502 174.022 162.944 176.492 161.989C178.619 161.166 180.902 160.897 183.108 160.293C183.923 160.07 184.775 160.056 185.596 159.836C186.322 159.641 187.043 159.288 187.799 159.237C189.076 159.151 190.21 158.437 191.475 158.223C193.213 157.929 195.19 157.555 196.773 156.76C197.557 156.367 198.612 155.81 197.06 155.796C195.978 155.786 194.905 155.714 193.921 156.212C192.307 157.027 190.785 157.877 189.082 158.522C187.972 158.943 186.891 159.467 185.735 159.769C185.577 159.811 183.693 160.234 184.088 160.276C185.234 160.398 186.721 160.426 187.851 160.21C188.815 160.025 189.868 160.041 190.851 159.985C191.352 159.957 191.613 159.537 192.152 159.537C192.452 159.537 192.753 159.537 193.053 159.537C193.98 159.537 195.629 159.606 196.461 159.162C196.988 158.882 197.089 158.942 197.51 158.522C197.918 158.116 198.62 157.973 199.123 157.708C199.334 157.597 199.589 157.401 199.782 157.259C199.899 157.173 200.248 157.175 200.277 157.051C200.448 156.311 199.566 155.73 199.366 155.131C198.818 153.49 198.286 151.949 197.788 150.293C197.497 149.325 196.994 148.325 196.851 147.334C196.758 146.682 196.462 146.138 196.158 145.555C195.316 143.942 194.574 142.281 193.869 140.609C192.633 137.682 191.611 134.676 190.313 131.773C189.508 129.971 188.698 128.279 188.146 126.387C187.602 124.527 186.848 122.782 186.177 120.967C185.931 120.302 185.519 119.549 185.458 118.839C185.435 118.583 185.458 118.315 185.458 118.058C185.458 116.631 185.866 119.067 185.952 119.305C186.971 122.137 188.758 124.327 190.383 126.819C190.606 127.161 190.866 127.502 190.99 127.892C191.204 128.565 191.538 129.253 191.666 129.945C191.779 130.556 191.701 132.824 191.701 130.826C191.701 129.056 191.233 127.407 191.233 125.656C191.233 124.706 191 123.749 190.842 122.813C190.728 122.136 190.64 121.431 190.608 120.751C190.584 120.238 190.217 119.823 190.14 119.305C190.086 118.941 190.016 118.57 189.949 118.208C189.756 117.168 189.828 113.984 189.828 115.041C189.828 115.869 190.81 116.964 191.233 117.709C191.542 118.256 191.711 118.718 191.978 119.288C192.558 120.524 192.263 121.962 192.559 123.27C192.721 123.982 192.629 124.821 192.863 125.506C193.027 125.987 193.324 126.428 193.487 126.919C193.633 127.359 193.575 127.82 193.73 128.266C193.86 128.64 194.114 128.899 194.285 129.246C194.454 129.59 194.417 130.004 194.588 130.369C194.979 131.2 194.725 132.152 195.143 132.987C195.889 134.476 195.925 136.442 196.192 138.074C196.324 138.876 196.783 139.519 196.843 140.377C196.917 141.438 197.476 142.507 197.476 143.544C197.476 144.171 197.647 144.757 197.909 145.322C198.464 146.518 196.805 147.43 196.036 147.982C193.451 149.841 190.591 151.415 187.764 152.903C183.367 155.218 178.853 157.739 174.133 159.404C172.784 159.879 171.092 160.203 170.006 159.071C168.578 157.584 168.487 155.528 168.653 153.618C168.937 150.344 170.075 147.023 171.298 143.976C172.804 140.22 174.744 137.133 177.862 134.417C178.872 133.536 182.004 131.453 182.613 133.901C183.278 136.571 182.211 140.115 181.382 142.613C180.014 146.735 177.58 150.697 175.148 154.325C174.95 154.62 174.539 155.396 174.133 155.58C173.369 155.927 174.301 153.95 174.584 153.186C175.752 150.035 177.16 146.95 178.564 143.893C180.12 140.504 181.635 137.04 184.391 134.367C185.544 133.249 187.626 131.275 189.481 131.275C190.576 131.275 190.409 134.049 190.383 134.55C190.319 135.778 190.218 137.057 189.923 138.257C189.432 140.26 188.189 142.067 187.088 143.801C185.034 147.034 182.855 150.426 179.977 153.053C179.624 153.376 177.188 155.537 178.365 153.735C179.882 151.411 181.966 149.659 184.556 148.506C185.72 147.988 187.138 147.3 188.423 147.118C188.79 147.066 189.139 146.977 189.464 146.802C189.886 146.575 190.337 146.301 190.825 146.229C191.149 146.181 191.551 146.293 190.886 146.054C187.234 144.741 183.379 143.809 179.657 142.679C178.5 142.328 177.351 142.038 176.405 141.283" stroke="black" stroke-width="10" stroke-linecap="round"/>
<path d="M184.209 107.169C184.307 108.962 185.614 110.625 185.614 112.406" stroke="black" stroke-width="10" stroke-linecap="round"/>
<path d="M199.87 157.119C200.328 157.261 200.822 157.379 201.222 157.648C201.495 157.831 201.702 158.119 201.989 158.27C202.267 158.415 202.44 158.673 202.712 158.803" stroke="black" stroke-width="10" stroke-linecap="round"/>
<path fill-rule="evenodd" clip-rule="evenodd" d="M164.667 32C183.26 32 198.333 47.0731 198.333 65.6667C198.333 71.7996 196.698 77.5462 193.828 82.502C191.915 85.8058 182.194 102.638 164.667 133C147.139 102.638 137.418 85.8058 135.505 82.502C132.635 77.5462 131 71.7996 131 65.6667C131 47.0731 146.073 32 164.667 32ZM164.667 51.2381C156.698 51.2381 150.238 57.698 150.238 65.6667C150.238 73.6353 156.698 80.0952 164.667 80.0952C172.635 80.0952 179.095 73.6353 179.095 65.6667C179.095 57.698 172.635 51.2381 164.667 51.2381Z" fill="#FF0000"/>
</svg>
